<?xml version="1.0" encoding="UTF-8" standalone="no"?>
<!-- Created with Inkscape (http://www.inkscape.org/) -->

<svg
   xmlns:dc="http://purl.org/dc/elements/1.1/"
   xmlns:cc="http://creativecommons.org/ns#"
   xmlns:rdf="http://www.w3.org/1999/02/22-rdf-syntax-ns#"
   xmlns:svg="http://www.w3.org/2000/svg"
   xmlns="http://www.w3.org/2000/svg"
   xmlns:sodipodi="http://sodipodi.sourceforge.net/DTD/sodipodi-0.dtd"
   xmlns:inkscape="http://www.inkscape.org/namespaces/inkscape"
   width="310.03558"
   height="260.30649"
   id="svg4410"
   version="1.1"
   inkscape:version="0.48.5 r10040"
   sodipodi:docname="New document 3">
  <defs
     id="defs4412" />
  <sodipodi:namedview
     id="base"
     pagecolor="#ffffff"
     bordercolor="#666666"
     borderopacity="1.0"
     inkscape:pageopacity="0.0"
     inkscape:pageshadow="2"
     inkscape:zoom="0.35"
     inkscape:cx="155.04088"
     inkscape:cy="130.16277"
     inkscape:document-units="px"
     inkscape:current-layer="layer1"
     showgrid="false"
     fit-margin-top="5"
     fit-margin-left="5"
     fit-margin-right="5"
     fit-margin-bottom="5"
     inkscape:window-width="680"
     inkscape:window-height="427"
     inkscape:window-x="640"
     inkscape:window-y="0"
     inkscape:window-maximized="0" />
  <metadata
     id="metadata4415">
    <rdf:RDF>
      <cc:Work
         rdf:about="">
        <dc:format>image/svg+xml</dc:format>
        <dc:type
           rdf:resource="http://purl.org/dc/dcmitype/StillImage" />
        <dc:title></dc:title>
      </cc:Work>
    </rdf:RDF>
  </metadata>
  <g
     inkscape:label="Layer 1"
     inkscape:groupmode="layer"
     id="layer1"
     transform="translate(-219.95912,-402.21846)">
    <g
       transform="matrix(4.0389109,0,0,-4.0389109,-763.04935,2254.1468)"
       id="g4307">
      <path
         d="m 244.6824,395.3748 74.17824,0 0,61.85112 -74.17824,0 0,-61.85112 z"
         style="fill:#ebebeb;fill-opacity:1;fill-rule:nonzero;stroke:none"
         id="path662"
         inkscape:connector-curvature="0" />
      <path
         inkscape:connector-curvature="0"
         id="path666"
         style="fill:none;stroke:#000000;stroke-width:0.04783325;stroke-linecap:round;stroke-linejoin:round;stroke-miterlimit:3.97954011;stroke-opacity:1;stroke-dasharray:none"
         d="m 244.68262,457.22505 74.17745,0 0,-61.85163 -74.17745,0 0,61.85163 z" />
      <path
         d="m 252.5556,423.42 0,-21.3816 c 0,-0.6924 0.5028,-1.2516 1.1256,-1.2516 l 56.1972,-0.005 c 0.6168,0 1.122,0.5604 1.122,1.2516 l -0.0144,21.3864 2.7156,0 c 0.6204,0 1.1208,0.5616 1.1208,1.2516 l -0.0132,27.4356 c 0,0.6924 -0.5052,1.2516 -1.1232,1.2516 l -63.7848,0.005 c -0.6228,0 -1.1268,-0.5604 -1.1268,-1.2516 l -0.004,-27.4356 c 0,-0.6912 0.504,-1.2516 1.1256,-1.2516"
         style="fill:#e1e1e1;fill-opacity:1;fill-rule:nonzero;stroke:none"
         id="path668"
         inkscape:connector-curvature="0" />
      <path
         inkscape:connector-curvature="0"
         id="path672"
         style="fill:none;stroke:#000000;stroke-width:0.04783339;stroke-linecap:round;stroke-linejoin:round;stroke-miterlimit:3.97954011;stroke-opacity:1;stroke-dasharray:none"
         d="m 252.5544,423.42074 0,-21.38154 c 0,-0.69177 0.50409,-1.25201 1.1274,-1.25201 l 56.19624,-0.005 c 0.61763,0 1.12172,0.56151 1.12172,1.25201 l -0.0136,21.3866 2.71461,0 c 0.62217,0 1.12172,0.56151 1.12172,1.25201 l -0.0148,27.43545 c 0,0.69176 -0.50409,1.25074 -1.12058,1.25074 l -63.78717,0.005 c -0.62103,0 -1.12513,-0.56024 -1.12513,-1.25201 l -0.005,-27.43418 c 0,-0.69177 0.50409,-1.25201 1.12626,-1.25201 l 2.65785,-0.005 z" />
      <path
         d="m 298.1832,447.5352 -2.2524,0 c -0.6216,0 -1.1256,0.5604 -1.1256,1.2516 l -0.005,2.4948 c 0,0.69 -0.5004,1.2516 -1.1208,1.2516 l -23.8308,0.004 c -0.618,0 -1.122,-0.5604 -1.122,-1.2516 l 0.0144,-2.5176 c 0,-0.69 -0.5052,-1.2504 -1.122,-1.2504 l -2.2608,0.018 c -0.6228,0 -1.1268,-0.5604 -1.1268,-1.2516 l -0.005,-6.2052 c 0,-0.6912 -0.5004,-1.2516 -1.1208,-1.2516 l -9.4296,-0.005 c -0.6216,0 -1.1256,-0.5604 -1.1256,-1.2516 l -0.005,-35.4336 c 0,-0.6924 0.504,-1.2528 1.1256,-1.2528 l 56.1984,-0.005 c 0.6156,0 1.1208,0.5616 1.1208,1.2516 l 0.005,35.4348 c 0,0.6912 -0.5052,1.2516 -1.1256,1.2516 l -9.4488,0.005 c -0.6216,0 -1.1208,0.5604 -1.1208,1.2516 l 0.0132,6.2052 c 0,0.6924 -0.504,1.2516 -1.1256,1.2516"
         style="fill:#1a1a1a;fill-opacity:1;fill-rule:nonzero;stroke:none"
         id="path674"
         inkscape:connector-curvature="0" />
      <path
         inkscape:connector-curvature="0"
         id="path678"
         style="fill:none;stroke:#393939;stroke-width:0.04783339;stroke-linecap:round;stroke-linejoin:round;stroke-miterlimit:3.97954011;stroke-opacity:1;stroke-dasharray:none"
         d="m 298.18284,447.53647 -2.25253,0 c -0.62103,0 -1.12513,0.56024 -1.12513,1.25074 l -0.005,2.4939 c 0,0.69177 -0.49955,1.25201 -1.12172,1.25201 l -23.82979,0.005 c -0.61763,0 -1.12172,-0.56024 -1.12172,-1.25201 l 0.0136,-2.51667 c 0,-0.69176 -0.50409,-1.25074 -1.12172,-1.25074 l -2.26047,0.0177 c -0.62217,0 -1.1274,-0.55898 -1.1274,-1.25201 l -0.005,-6.20567 c 0,-0.6905 -0.50069,-1.25201 -1.12173,-1.25201 l -9.42905,-0.004 c -0.62103,0 -1.12626,-0.56151 -1.12626,-1.25201 l -0.003,-35.4344 c 0,-0.6905 0.5041,-1.25201 1.12513,-1.25201 l 56.19851,-0.004 c 0.61536,0 1.12059,0.56024 1.12059,1.25074 l 0.005,35.4344 c 0,0.69176 -0.50409,1.25201 -1.12513,1.25201 l -9.44949,0.005 c -0.62103,0 -1.12172,0.56024 -1.12172,1.25074 l 0.0148,6.20567 c 0,0.69176 -0.50523,1.25201 -1.12626,1.25201 l -0.005,0.005 z" />
      <path
         d="m 302.4624,449.838 8.832,0 0.7848,0.9384 -10.4016,0"
         style="fill:#ccd94b;fill-opacity:1;fill-rule:nonzero;stroke:none"
         id="path680"
         inkscape:connector-curvature="0" />
      <path
         inkscape:connector-curvature="0"
         id="path684"
         style="fill:none;stroke:#000000;stroke-width:0.04783339;stroke-linecap:round;stroke-linejoin:round;stroke-miterlimit:3.97954011;stroke-opacity:1;stroke-dasharray:none"
         d="m 302.46309,449.83814 8.83073,0 0.78566,0.93837 -10.40205,0 0.78566,-0.93837 z" />
      <path
         d="m 311.304,441.9036 0.7848,-0.9336 0,9.816 -0.7848,-0.9576"
         style="fill:#ccd94b;fill-opacity:1;fill-rule:nonzero;stroke:none"
         id="path686"
         inkscape:connector-curvature="0" />
      <path
         inkscape:connector-curvature="0"
         id="path690"
         style="fill:none;stroke:#000000;stroke-width:0.04783339;stroke-linecap:round;stroke-linejoin:round;stroke-miterlimit:3.97954011;stroke-opacity:1;stroke-dasharray:none"
         d="m 311.30404,441.90369 0.78452,-0.93332 0,9.81626 -0.78452,-0.95734 0,-7.9256 z" />
      <path
         d="m 302.4624,441.9036 8.832,0 0.7848,-0.9336 -10.4016,0"
         style="fill:#cad74d;fill-opacity:1;fill-rule:nonzero;stroke:none"
         id="path692"
         inkscape:connector-curvature="0" />
      <path
         inkscape:connector-curvature="0"
         id="path696"
         style="fill:none;stroke:#000000;stroke-width:0.04783339;stroke-linecap:round;stroke-linejoin:round;stroke-miterlimit:3.97954011;stroke-opacity:1;stroke-dasharray:none"
         d="m 302.46309,441.90369 8.83073,0 0.78566,-0.93332 -10.40205,0 0.78566,0.93332 z" />
      <path
         d="m 302.4576,441.9036 -0.7836,-0.9336 0,9.816 0.7836,-0.9576"
         style="fill:#c7d539;fill-opacity:1;fill-rule:nonzero;stroke:none"
         id="path698"
         inkscape:connector-curvature="0" />
      <path
         inkscape:connector-curvature="0"
         id="path702"
         style="fill:none;stroke:#000000;stroke-width:0.04783339;stroke-linecap:round;stroke-linejoin:round;stroke-miterlimit:3.97954011;stroke-opacity:1;stroke-dasharray:none"
         d="m 302.45855,441.90369 -0.78452,-0.93332 0,9.81626 0.78452,-0.95734 0,-7.9256 z" />
      <path
         d="m 302.4576,441.918 8.84578,0 0,7.92 -8.84578,0 0,-7.92 z"
         style="fill:#c9d742;fill-opacity:1;fill-rule:nonzero;stroke:none"
         id="path704"
         inkscape:connector-curvature="0" />
      <path
         inkscape:connector-curvature="0"
         id="path708"
         style="fill:none;stroke:#000000;stroke-width:0.04783339;stroke-linecap:round;stroke-linejoin:round;stroke-miterlimit:3.97954011;stroke-opacity:1;stroke-dasharray:none"
         d="m 302.45855,449.83814 8.84549,0 0,-7.91928 -8.84549,0 0,7.91928 z" />
      <path
         d="m 252.3456,449.838 8.8356,0 0.78,0.9384 -10.4004,0"
         style="fill:#d0cfca;fill-opacity:1;fill-rule:nonzero;stroke:none"
         id="path710"
         inkscape:connector-curvature="0" />
      <path
         inkscape:connector-curvature="0"
         id="path714"
         style="fill:none;stroke:#000000;stroke-width:0.04783339;stroke-linecap:round;stroke-linejoin:round;stroke-miterlimit:3.97954011;stroke-opacity:1;stroke-dasharray:none"
         d="m 252.34436,449.83814 8.83527,0 0.78112,0.93837 -10.40091,0 0.78452,-0.93837 z" />
      <path
         d="m 261.1896,441.9036 0.7812,-0.9336 0,9.816 -0.7812,-0.9576"
         style="fill:#d0cfca;fill-opacity:1;fill-rule:nonzero;stroke:none"
         id="path716"
         inkscape:connector-curvature="0" />
      <path
         inkscape:connector-curvature="0"
         id="path720"
         style="fill:none;stroke:#000000;stroke-width:0.04783339;stroke-linecap:round;stroke-linejoin:round;stroke-miterlimit:3.97954011;stroke-opacity:1;stroke-dasharray:none"
         d="m 261.18985,441.90369 0.77998,-0.93332 0,9.81626 -0.77998,-0.95734 0,-7.9256 z" />
      <path
         d="m 252.3456,441.9036 8.8356,0 0.78,-0.9336 -10.4004,0"
         style="fill:#89887a;fill-opacity:1;fill-rule:nonzero;stroke:none"
         id="path722"
         inkscape:connector-curvature="0" />
      <path
         inkscape:connector-curvature="0"
         id="path726"
         style="fill:none;stroke:#000000;stroke-width:0.04783339;stroke-linecap:round;stroke-linejoin:round;stroke-miterlimit:3.97954011;stroke-opacity:1;stroke-dasharray:none"
         d="m 252.34436,441.90369 8.83527,0 0.78112,-0.93332 -10.40091,0 0.78452,0.93332 z" />
      <path
         d="m 252.3396,441.9036 -0.7848,-0.9336 0,9.816 0.7848,-0.9576"
         style="fill:#aeada4;fill-opacity:1;fill-rule:nonzero;stroke:none"
         id="path728"
         inkscape:connector-curvature="0" />
      <path
         inkscape:connector-curvature="0"
         id="path732"
         style="fill:none;stroke:#000000;stroke-width:0.04783339;stroke-linecap:round;stroke-linejoin:round;stroke-miterlimit:3.97954011;stroke-opacity:1;stroke-dasharray:none"
         d="m 252.33982,441.90369 -0.78452,-0.93332 0,9.81626 0.78452,-0.95734 0,-7.9256 z" />
      <path
         d="m 252.3396,441.918 8.84953,0 0,7.92 -8.84953,0 0,-7.92 z"
         style="fill:#b9b8b1;fill-opacity:1;fill-rule:nonzero;stroke:none"
         id="path734"
         inkscape:connector-curvature="0" />
      <path
         inkscape:connector-curvature="0"
         id="path738"
         style="fill:none;stroke:#000000;stroke-width:0.04783339;stroke-linecap:round;stroke-linejoin:round;stroke-miterlimit:3.97954011;stroke-opacity:1;stroke-dasharray:none"
         d="m 252.33982,449.83814 8.85003,0 0,-7.91928 -8.85003,0 0,7.91928 z" />
      <path
         d="m 296.5284,400.8792 1.96781,0 0,12.03 -1.96781,0 0,-12.03 z"
         style="fill:#ffac00;fill-opacity:1;fill-rule:nonzero;stroke:none"
         id="path740"
         inkscape:connector-curvature="0" />
      <path
         inkscape:connector-curvature="0"
         id="path744"
         style="fill:none;stroke:#000000;stroke-width:0.04530982;stroke-linecap:round;stroke-linejoin:round;stroke-miterlimit:3.97954011;stroke-opacity:1;stroke-dasharray:none"
         d="m 296.52853,412.90848 1.96739,0 0,-12.02998 -1.96739,0 0,12.02998 z" />
      <path
         d="m 292.1412,400.8792 1.9711,0 0,12.03 -1.9711,0 0,-12.03 z"
         style="fill:#ffac00;fill-opacity:1;fill-rule:nonzero;stroke:none"
         id="path746"
         inkscape:connector-curvature="0" />
      <path
         inkscape:connector-curvature="0"
         id="path750"
         style="fill:none;stroke:#000000;stroke-width:0.04530982;stroke-linecap:round;stroke-linejoin:round;stroke-miterlimit:3.97954011;stroke-opacity:1;stroke-dasharray:none"
         d="m 292.14122,412.90848 1.97099,0 0,-12.02998 -1.97099,0 0,12.02998 z" />
      <path
         d="m 287.6376,400.8792 1.96781,0 0,12.03 -1.96781,0 0,-12.03 z"
         style="fill:#ffac00;fill-opacity:1;fill-rule:nonzero;stroke:none"
         id="path752"
         inkscape:connector-curvature="0" />
      <path
         inkscape:connector-curvature="0"
         id="path756"
         style="fill:none;stroke:#000000;stroke-width:0.04530982;stroke-linecap:round;stroke-linejoin:round;stroke-miterlimit:3.97954011;stroke-opacity:1;stroke-dasharray:none"
         d="m 287.63747,412.90848 1.96739,0 0,-12.02998 -1.96739,0 0,12.02998 z" />
      <path
         d="m 283.02,400.8792 1.96781,0 0,12.03 -1.96781,0 0,-12.03 z"
         style="fill:#ffac00;fill-opacity:1;fill-rule:nonzero;stroke:none"
         id="path758"
         inkscape:connector-curvature="0" />
      <path
         inkscape:connector-curvature="0"
         id="path762"
         style="fill:none;stroke:#000000;stroke-width:0.04530982;stroke-linecap:round;stroke-linejoin:round;stroke-miterlimit:3.97954011;stroke-opacity:1;stroke-dasharray:none"
         d="m 283.01968,412.90848 1.96739,0 0,-12.02998 -1.96739,0 0,12.02998 z" />
      <path
         d="m 278.6328,400.8792 1.9711,0 0,12.03 -1.9711,0 0,-12.03 z"
         style="fill:#ffac00;fill-opacity:1;fill-rule:nonzero;stroke:none"
         id="path764"
         inkscape:connector-curvature="0" />
      <path
         inkscape:connector-curvature="0"
         id="path768"
         style="fill:none;stroke:#000000;stroke-width:0.04530982;stroke-linecap:round;stroke-linejoin:round;stroke-miterlimit:3.97954011;stroke-opacity:1;stroke-dasharray:none"
         d="m 278.63236,412.90848 1.971,0 0,-12.02998 -1.971,0 0,12.02998 z" />
      <path
         d="m 274.1292,400.8792 1.9711,0 0,12.03 -1.9711,0 0,-12.03 z"
         style="fill:#ffac00;fill-opacity:1;fill-rule:nonzero;stroke:none"
         id="path770"
         inkscape:connector-curvature="0" />
      <path
         inkscape:connector-curvature="0"
         id="path774"
         style="fill:none;stroke:#000000;stroke-width:0.04530982;stroke-linecap:round;stroke-linejoin:round;stroke-miterlimit:3.97954011;stroke-opacity:1;stroke-dasharray:none"
         d="m 274.12861,412.90848 1.971,0 0,-12.02998 -1.971,0 0,12.02998 z" />
      <path
         d="m 269.4324,400.8792 1.96781,0 0,12.03 -1.96781,0 0,-12.03 z"
         style="fill:#ffac00;fill-opacity:1;fill-rule:nonzero;stroke:none"
         id="path776"
         inkscape:connector-curvature="0" />
      <path
         inkscape:connector-curvature="0"
         id="path780"
         style="fill:none;stroke:#000000;stroke-width:0.04530982;stroke-linecap:round;stroke-linejoin:round;stroke-miterlimit:3.97954011;stroke-opacity:1;stroke-dasharray:none"
         d="m 269.43161,412.90848 1.96859,0 0,-12.02998 -1.96859,0 0,12.02998 z" />
      <path
         d="m 265.0452,400.8792 1.96781,0 0,12.03 -1.96781,0 0,-12.03 z"
         style="fill:#ffac00;fill-opacity:1;fill-rule:nonzero;stroke:none"
         id="path782"
         inkscape:connector-curvature="0" />
      <path
         inkscape:connector-curvature="0"
         id="path786"
         style="fill:none;stroke:#000000;stroke-width:0.04530982;stroke-linecap:round;stroke-linejoin:round;stroke-miterlimit:3.97954011;stroke-opacity:1;stroke-dasharray:none"
         d="m 265.04429,412.90848 1.96859,0 0,-12.02998 -1.96859,0 0,12.02998 z" />
      <path
         d="m 298.842,414.5988 0,0.4824 -0.738,0 0,5.664 -1.4304,-0.7152 0.0936,-0.5316 0.7668,0.42 0,-4.8468 -0.7992,0 0,-0.4728"
         style="fill:#ffffff;fill-opacity:1;fill-rule:nonzero;stroke:none"
         id="path788"
         inkscape:connector-curvature="0" />
      <path
         inkscape:connector-curvature="0"
         id="path792"
         style="fill:none;stroke:#000000;stroke-width:0.04783317;stroke-linecap:butt;stroke-linejoin:miter;stroke-miterlimit:4;stroke-opacity:1;stroke-dasharray:none"
         d="m 298.84163,414.59877 0,0.48225 -0.73823,0 0,5.6635 -1.43082,-0.71499 0.0948,-0.53144 0.76583,0.42108 0,-4.84774 -0.79944,0 0,-0.47266 2.10784,0 z" />
      <path
         d="m 264.7044,417.7932 c -0.2772,-0.12 -0.4908,-0.2796 -0.6456,-0.48 -0.1584,-0.2064 -0.2616,-0.426 -0.3036,-0.6636 -0.0468,-0.2436 -0.0372,-0.486 0.0228,-0.7284 0.0612,-0.2424 0.168,-0.468 0.3228,-0.6684 0.1548,-0.2004 0.3504,-0.3636 0.5976,-0.4896 0.2436,-0.126 0.5328,-0.1872 0.8604,-0.1872 0.3168,0 0.5988,0.0612 0.846,0.1872 0.2424,0.126 0.444,0.2892 0.5976,0.4848 0.1548,0.1968 0.2616,0.4164 0.3228,0.6684 0.06,0.2424 0.0696,0.4896 0.0288,0.7332 -0.048,0.2376 -0.1452,0.4572 -0.2952,0.6672 -0.1488,0.2064 -0.36,0.3732 -0.6312,0.4956 0.2424,0.1404 0.4308,0.3084 0.5664,0.5136 0.1296,0.1968 0.21,0.4056 0.2424,0.63 0.0276,0.216 0.01,0.4344 -0.0564,0.654 -0.0696,0.2148 -0.1728,0.4068 -0.3132,0.5784 -0.1452,0.1692 -0.3216,0.3084 -0.5376,0.4164 -0.2136,0.1032 -0.462,0.1548 -0.738,0.1596 -0.3036,-0.005 -0.5652,-0.0564 -0.7896,-0.1644 -0.2244,-0.1116 -0.4116,-0.2568 -0.5604,-0.4284 -0.15,-0.1836 -0.258,-0.3792 -0.3228,-0.594 -0.0648,-0.2196 -0.084,-0.4392 -0.0456,-0.6576 0.0276,-0.2256 0.1152,-0.4356 0.2556,-0.6324 0.1368,-0.1956 0.3276,-0.3624 0.576,-0.4944 z m 1.9656,1.3176 c -0.005,-0.252 -0.06,-0.4584 -0.162,-0.6168 -0.1128,-0.168 -0.2484,-0.2892 -0.4164,-0.3636 -0.1692,-0.0852 -0.3504,-0.1212 -0.5424,-0.1212 -0.1908,0 -0.3696,0.036 -0.5364,0.1212 -0.1692,0.0744 -0.3084,0.1956 -0.4116,0.354 -0.1128,0.1596 -0.1644,0.3552 -0.1644,0.5928 0,0.2484 0.0516,0.4584 0.1644,0.636 0.1032,0.1668 0.2424,0.2988 0.4116,0.3828 0.1668,0.084 0.3456,0.1272 0.5412,0.1296 0.1872,0 0.3684,-0.0408 0.5376,-0.12 0.168,-0.0888 0.3036,-0.2148 0.4164,-0.3792 0.102,-0.168 0.1572,-0.3732 0.162,-0.6156 z m 0.1272,-2.7876 c -0.005,-0.2772 -0.066,-0.4992 -0.1872,-0.6732 -0.1212,-0.1824 -0.276,-0.312 -0.4572,-0.402 -0.1872,-0.0888 -0.3876,-0.1344 -0.6036,-0.1296 -0.2196,-0.005 -0.4212,0.0372 -0.6024,0.1248 -0.1872,0.0852 -0.3408,0.216 -0.4632,0.3936 -0.126,0.1716 -0.186,0.3924 -0.1812,0.6528 -0.005,0.276 0.0552,0.5088 0.1812,0.696 0.1224,0.1824 0.276,0.318 0.4632,0.4104 0.1812,0.0888 0.3828,0.1368 0.6024,0.1404 0.216,-0.004 0.4164,-0.0516 0.6036,-0.1404 0.1812,-0.0924 0.336,-0.228 0.4572,-0.4056 0.1212,-0.1824 0.1824,-0.4056 0.1872,-0.6672"
         style="fill:#ffffff;fill-opacity:1;fill-rule:nonzero;stroke:none"
         id="path794"
         inkscape:connector-curvature="0" />
    </g>
  </g>
</svg>
