<?xml version="1.0" encoding="UTF-8" standalone="no"?>
<!-- Created with Inkscape (http://www.inkscape.org/) -->

<svg
   xmlns:dc="http://purl.org/dc/elements/1.1/"
   xmlns:cc="http://creativecommons.org/ns#"
   xmlns:rdf="http://www.w3.org/1999/02/22-rdf-syntax-ns#"
   xmlns:svg="http://www.w3.org/2000/svg"
   xmlns="http://www.w3.org/2000/svg"
   xmlns:sodipodi="http://sodipodi.sourceforge.net/DTD/sodipodi-0.dtd"
   xmlns:inkscape="http://www.inkscape.org/namespaces/inkscape"
   width="610"
   height="234.15822"
   id="svg6329"
   version="1.1"
   inkscape:version="0.48.5 r10040"
   sodipodi:docname="hdmi.svg">
  <defs
     id="defs6331" />
  <sodipodi:namedview
     id="base"
     pagecolor="#ffffff"
     bordercolor="#666666"
     borderopacity="1.0"
     inkscape:pageopacity="0.0"
     inkscape:pageshadow="2"
     inkscape:zoom="0.98994949"
     inkscape:cx="172.62461"
     inkscape:cy="221.20868"
     inkscape:document-units="px"
     inkscape:current-layer="layer1"
     showgrid="false"
     fit-margin-top="5"
     fit-margin-left="5"
     fit-margin-right="5"
     fit-margin-bottom="5"
     inkscape:window-width="1280"
     inkscape:window-height="778"
     inkscape:window-x="0"
     inkscape:window-y="0"
     inkscape:window-maximized="1" />
  <metadata
     id="metadata6334">
    <rdf:RDF>
      <cc:Work
         rdf:about="">
        <dc:format>image/svg+xml</dc:format>
        <dc:type
           rdf:resource="http://purl.org/dc/dcmitype/StillImage" />
        <dc:title></dc:title>
      </cc:Work>
    </rdf:RDF>
  </metadata>
  <g
     inkscape:label="Layer 1"
     inkscape:groupmode="layer"
     id="layer1"
     transform="translate(-202.37539,-519.41263)">
    <g
       id="g8805"
       transform="matrix(4.464485,0,0,-4.464485,-430.68881,2414.8988)">
      <path
         d="m 152.184,423.45 c -5.1072,0 -9.264,-4.1604 -9.264,-9.2724 l 0,-17.8392 c 0,-4.6704 3.2808,-9.036 7.6332,-10.158 1.29,-0.3348 3.612,-1.8072 4.5948,-2.9136 l 4.5156,-5.0772 c 2.5416,-2.8668 7.1736,-4.9488 11.0112,-4.9488 l 78.8916,0 c 3.8352,0 8.466,2.0856 11.0136,4.9584 l 4.4976,5.0616 c 0.9864,1.1124 3.3084,2.5848 4.6008,2.9196 4.3536,1.122 7.6356,5.4912 7.6356,10.158 l 0,17.8392 c 0,5.112 -4.1556,9.2724 -9.2628,9.2724 l -115.8672,0 0,0 z"
         style="fill:#000000;fill-opacity:1;fill-rule:nonzero;stroke:none"
         id="path7118"
         inkscape:connector-curvature="0" />
      <path
         d="m 152.184,419.6004 c -2.9892,0 -5.418,-2.4312 -5.418,-5.4228 l 0,-17.8392 c 0,-2.8716 2.1288,-5.7564 4.7484,-6.4332 2.0316,-0.5268 5.01,-2.3976 6.51,-4.0812 l 4.512,-5.0748 c 1.8192,-2.0532 5.3928,-3.66 8.1384,-3.66 l 78.8916,0 c 2.742,0 6.3168,1.6104 8.1348,3.6624 l 4.5,5.0688 c 1.5024,1.6872 4.482,3.5604 6.516,4.0848 2.6196,0.6768 4.7508,3.564 4.7508,6.4332 l 0,17.8392 c 0,2.9916 -2.4312,5.4228 -5.4168,5.4228 l -115.8672,0 0,0 z"
         style="fill:#ffffff;fill-opacity:1;fill-rule:nonzero;stroke:none"
         id="path7120"
         inkscape:connector-curvature="0" />
      <path
         inkscape:connector-curvature="0"
         id="path7124"
         style="fill:none;stroke:#000000;stroke-width:0.64124;stroke-linecap:butt;stroke-linejoin:miter;stroke-miterlimit:4;stroke-opacity:1;stroke-dasharray:none"
         d="m 162.79697,401.94518 c -0.49178,0 -0.8924,-0.39738 -0.8924,-0.89199 l 0,-3.32427 c 0,-0.49221 0.39223,-1.01204 0.86122,-1.1561 l 5.06656,-1.56549 c 0.469,-0.14767 1.25465,-0.26412 1.74643,-0.26412 l 81.07103,0 c 0.49059,0 1.27744,0.12005 1.74643,0.26412 l 5.07017,1.56549 c 0.46899,0.14406 0.86721,0.66389 0.86721,1.1561 l 0,3.32427 c 0,0.49461 -0.40422,0.89199 -0.8948,0.89199 l -94.64185,0 0,0 z" />
      <path
         d="m 211.9788,400.242 5.21766,0 0,2.69719 -5.21766,0 0,-2.69719 z"
         style="fill:#ffffff;fill-opacity:1;fill-rule:nonzero;stroke:none"
         id="path7126"
         inkscape:connector-curvature="0" />
      <path
         inkscape:connector-curvature="0"
         id="path7130"
         style="fill:none;stroke:#000000;stroke-width:0.64124;stroke-linecap:butt;stroke-linejoin:miter;stroke-miterlimit:4;stroke-opacity:1;stroke-dasharray:none"
         d="m 211.97888,402.93801 5.21769,0 0,-2.69638 -5.21769,0 0,2.69638 z" />
      <path
         d="m 203.0376,400.242 5.21766,0 0,2.69719 -5.21766,0 0,-2.69719 z"
         style="fill:#ffffff;fill-opacity:1;fill-rule:nonzero;stroke:none"
         id="path7132"
         inkscape:connector-curvature="0" />
      <path
         inkscape:connector-curvature="0"
         id="path7136"
         style="fill:none;stroke:#000000;stroke-width:0.64124;stroke-linecap:butt;stroke-linejoin:miter;stroke-miterlimit:4;stroke-opacity:1;stroke-dasharray:none"
         d="m 203.03802,402.93801 5.2177,0 0,-2.69638 -5.2177,0 0,2.69638 z" />
      <path
         d="m 194.1,400.242 5.21766,0 0,2.69719 -5.21766,0 0,-2.69719 z"
         style="fill:#ffffff;fill-opacity:1;fill-rule:nonzero;stroke:none"
         id="path7138"
         inkscape:connector-curvature="0" />
      <path
         inkscape:connector-curvature="0"
         id="path7142"
         style="fill:none;stroke:#000000;stroke-width:0.64124;stroke-linecap:butt;stroke-linejoin:miter;stroke-miterlimit:4;stroke-opacity:1;stroke-dasharray:none"
         d="m 194.09956,402.93801 5.2177,0 0,-2.69638 -5.2177,0 0,2.69638 z" />
      <path
         d="m 185.1576,400.242 5.21766,0 0,2.69719 -5.21766,0 0,-2.69719 z"
         style="fill:#ffffff;fill-opacity:1;fill-rule:nonzero;stroke:none"
         id="path7144"
         inkscape:connector-curvature="0" />
      <path
         inkscape:connector-curvature="0"
         id="path7148"
         style="fill:none;stroke:#000000;stroke-width:0.64124;stroke-linecap:butt;stroke-linejoin:miter;stroke-miterlimit:4;stroke-opacity:1;stroke-dasharray:none"
         d="m 185.15871,402.93801 5.2165,0 0,-2.69638 -5.2165,0 0,2.69638 z" />
      <path
         d="m 176.22,400.242 5.21766,0 0,2.69719 -5.21766,0 0,-2.69719 z"
         style="fill:#ffffff;fill-opacity:1;fill-rule:nonzero;stroke:none"
         id="path7150"
         inkscape:connector-curvature="0" />
      <path
         inkscape:connector-curvature="0"
         id="path7154"
         style="fill:none;stroke:#000000;stroke-width:0.64124;stroke-linecap:butt;stroke-linejoin:miter;stroke-miterlimit:4;stroke-opacity:1;stroke-dasharray:none"
         d="m 176.22025,402.93801 5.2177,0 0,-2.69638 -5.2177,0 0,2.69638 z" />
      <path
         d="m 167.2812,400.242 5.2139,0 0,2.69719 -5.2139,0 0,-2.69719 z"
         style="fill:#ffffff;fill-opacity:1;fill-rule:nonzero;stroke:none"
         id="path7156"
         inkscape:connector-curvature="0" />
      <path
         inkscape:connector-curvature="0"
         id="path7160"
         style="fill:none;stroke:#000000;stroke-width:0.64124;stroke-linecap:butt;stroke-linejoin:miter;stroke-miterlimit:4;stroke-opacity:1;stroke-dasharray:none"
         d="m 167.2818,402.93801 5.2141,0 0,-2.69638 -5.2141,0 0,2.69638 z" />
      <path
         d="m 220.92,400.242 5.21437,0 0,2.69719 -5.21437,0 0,-2.69719 z"
         style="fill:#ffffff;fill-opacity:1;fill-rule:nonzero;stroke:none"
         id="path7162"
         inkscape:connector-curvature="0" />
      <path
         inkscape:connector-curvature="0"
         id="path7166"
         style="fill:none;stroke:#000000;stroke-width:0.64124;stroke-linecap:butt;stroke-linejoin:miter;stroke-miterlimit:4;stroke-opacity:1;stroke-dasharray:none"
         d="m 220.92093,402.93801 5.2141,0 0,-2.69638 -5.2141,0 0,2.69638 z" />
      <path
         d="m 229.8624,400.242 5.21719,0 0,2.69719 -5.21719,0 0,-2.69719 z"
         style="fill:#ffffff;fill-opacity:1;fill-rule:nonzero;stroke:none"
         id="path7168"
         inkscape:connector-curvature="0" />
      <path
         inkscape:connector-curvature="0"
         id="path7172"
         style="fill:none;stroke:#000000;stroke-width:0.64124;stroke-linecap:butt;stroke-linejoin:miter;stroke-miterlimit:4;stroke-opacity:1;stroke-dasharray:none"
         d="m 229.86299,402.93801 5.21649,0 0,-2.69638 -5.21649,0 0,2.69638 z" />
      <path
         d="m 238.8012,400.242 5.21719,0 0,2.69719 -5.21719,0 0,-2.69719 z"
         style="fill:#ffffff;fill-opacity:1;fill-rule:nonzero;stroke:none"
         id="path7174"
         inkscape:connector-curvature="0" />
      <path
         inkscape:connector-curvature="0"
         id="path7178"
         style="fill:none;stroke:#000000;stroke-width:0.64124;stroke-linecap:butt;stroke-linejoin:miter;stroke-miterlimit:4;stroke-opacity:1;stroke-dasharray:none"
         d="m 238.80144,402.93801 5.2165,0 0,-2.69638 -5.2165,0 0,2.69638 z" />
      <path
         d="m 247.7388,400.242 5.21719,0 0,2.69719 -5.21719,0 0,-2.69719 z"
         style="fill:#ffffff;fill-opacity:1;fill-rule:nonzero;stroke:none"
         id="path7180"
         inkscape:connector-curvature="0" />
      <path
         inkscape:connector-curvature="0"
         id="path7184"
         style="fill:none;stroke:#000000;stroke-width:0.64124;stroke-linecap:butt;stroke-linejoin:miter;stroke-miterlimit:4;stroke-opacity:1;stroke-dasharray:none"
         d="m 247.7387,402.93801 5.2177,0 0,-2.69638 -5.2177,0 0,2.69638 z" />
      <path
         d="m 216.4476,393.7488 5.21766,0 0,2.7 -5.21766,0 0,-2.7 z"
         style="fill:#ffffff;fill-opacity:1;fill-rule:nonzero;stroke:none"
         id="path7186"
         inkscape:connector-curvature="0" />
      <path
         inkscape:connector-curvature="0"
         id="path7190"
         style="fill:none;stroke:#000000;stroke-width:0.64124;stroke-linecap:butt;stroke-linejoin:miter;stroke-miterlimit:4;stroke-opacity:1;stroke-dasharray:none"
         d="m 216.4481,396.44796 5.2177,0 0,-2.69999 -5.2177,0 0,2.69999 z" />
      <path
         d="m 207.51,393.7488 5.21766,0 0,2.7 -5.21766,0 0,-2.7 z"
         style="fill:#ffffff;fill-opacity:1;fill-rule:nonzero;stroke:none"
         id="path7192"
         inkscape:connector-curvature="0" />
      <path
         inkscape:connector-curvature="0"
         id="path7196"
         style="fill:none;stroke:#000000;stroke-width:0.64124;stroke-linecap:butt;stroke-linejoin:miter;stroke-miterlimit:4;stroke-opacity:1;stroke-dasharray:none"
         d="m 207.50965,396.44796 5.2177,0 0,-2.69999 -5.2177,0 0,2.69999 z" />
      <path
         d="m 198.5688,393.7488 5.21766,0 0,2.7 -5.21766,0 0,-2.7 z"
         style="fill:#ffffff;fill-opacity:1;fill-rule:nonzero;stroke:none"
         id="path7198"
         inkscape:connector-curvature="0" />
      <path
         inkscape:connector-curvature="0"
         id="path7202"
         style="fill:none;stroke:#000000;stroke-width:0.64124;stroke-linecap:butt;stroke-linejoin:miter;stroke-miterlimit:4;stroke-opacity:1;stroke-dasharray:none"
         d="m 198.56879,396.44796 5.2177,0 0,-2.69999 -5.2177,0 0,2.69999 z" />
      <path
         d="m 189.6276,393.7488 5.21766,0 0,2.7 -5.21766,0 0,-2.7 z"
         style="fill:#ffffff;fill-opacity:1;fill-rule:nonzero;stroke:none"
         id="path7204"
         inkscape:connector-curvature="0" />
      <path
         inkscape:connector-curvature="0"
         id="path7208"
         style="fill:none;stroke:#000000;stroke-width:0.64124;stroke-linecap:butt;stroke-linejoin:miter;stroke-miterlimit:4;stroke-opacity:1;stroke-dasharray:none"
         d="m 189.62674,396.44796 5.2177,0 0,-2.69999 -5.2177,0 0,2.69999 z" />
      <path
         d="m 180.6864,393.7488 5.21719,0 0,2.7 -5.21719,0 0,-2.7 z"
         style="fill:#ffffff;fill-opacity:1;fill-rule:nonzero;stroke:none"
         id="path7210"
         inkscape:connector-curvature="0" />
      <path
         inkscape:connector-curvature="0"
         id="path7214"
         style="fill:none;stroke:#000000;stroke-width:0.64124;stroke-linecap:butt;stroke-linejoin:miter;stroke-miterlimit:4;stroke-opacity:1;stroke-dasharray:none"
         d="m 180.68588,396.44796 5.2177,0 0,-2.69999 -5.2177,0 0,2.69999 z" />
      <path
         d="m 171.7476,393.7488 5.21719,0 0,2.7 -5.21719,0 0,-2.7 z"
         style="fill:#ffffff;fill-opacity:1;fill-rule:nonzero;stroke:none"
         id="path7216"
         inkscape:connector-curvature="0" />
      <path
         inkscape:connector-curvature="0"
         id="path7220"
         style="fill:none;stroke:#000000;stroke-width:0.64124;stroke-linecap:butt;stroke-linejoin:miter;stroke-miterlimit:4;stroke-opacity:1;stroke-dasharray:none"
         d="m 171.74743,396.44796 5.21649,0 0,-2.69999 -5.21649,0 0,2.69999 z" />
      <path
         d="m 225.3876,393.7488 5.21766,0 0,2.7 -5.21766,0 0,-2.7 z"
         style="fill:#ffffff;fill-opacity:1;fill-rule:nonzero;stroke:none"
         id="path7222"
         inkscape:connector-curvature="0" />
      <path
         inkscape:connector-curvature="0"
         id="path7226"
         style="fill:none;stroke:#000000;stroke-width:0.64124;stroke-linecap:butt;stroke-linejoin:miter;stroke-miterlimit:4;stroke-opacity:1;stroke-dasharray:none"
         d="m 225.38776,396.44796 5.2177,0 0,-2.69999 -5.2177,0 0,2.69999 z" />
      <path
         d="m 234.3288,393.7488 5.21719,0 0,2.7 -5.21719,0 0,-2.7 z"
         style="fill:#ffffff;fill-opacity:1;fill-rule:nonzero;stroke:none"
         id="path7228"
         inkscape:connector-curvature="0" />
      <path
         inkscape:connector-curvature="0"
         id="path7232"
         style="fill:none;stroke:#000000;stroke-width:0.64124;stroke-linecap:butt;stroke-linejoin:miter;stroke-miterlimit:4;stroke-opacity:1;stroke-dasharray:none"
         d="m 234.32862,396.44796 5.21769,0 0,-2.69999 -5.21769,0 0,2.69999 z" />
      <path
         d="m 243.2664,393.7488 5.21766,0 0,2.7 -5.21766,0 0,-2.7 z"
         style="fill:#ffffff;fill-opacity:1;fill-rule:nonzero;stroke:none"
         id="path7234"
         inkscape:connector-curvature="0" />
      <path
         inkscape:connector-curvature="0"
         id="path7238"
         style="fill:none;stroke:#000000;stroke-width:0.64124;stroke-linecap:butt;stroke-linejoin:miter;stroke-miterlimit:4;stroke-opacity:1;stroke-dasharray:none"
         d="m 243.26707,396.44796 5.2177,0 0,-2.69999 -5.2177,0 0,2.69999 z" />
      <path
         d="m 240.372,405.5256 0,0.4452 c 0.2448,-0.1968 0.5196,-0.294 0.8292,-0.2904 0.2472,-0.004 0.4476,0.0588 0.6012,0.1872 0.1476,0.1224 0.222,0.2916 0.2244,0.5076 -0.002,0.4668 -0.3372,0.702 -1.0008,0.7056 l -0.2976,0 0,0.3468 0.2856,0 c 0.5916,-0.004 0.888,0.216 0.888,0.6612 0,0.4032 -0.228,0.6072 -0.6792,0.6108 -0.2568,-0.004 -0.4944,-0.0876 -0.7128,-0.2568 l 0,0.4008 c 0.2256,0.1344 0.4968,0.2004 0.816,0.204 0.2976,-0.004 0.5388,-0.0816 0.7236,-0.2424 0.1776,-0.1584 0.2688,-0.366 0.2712,-0.6132 -0.002,-0.4764 -0.24,-0.78 -0.7188,-0.912 l 0,-0.012 c 0.2556,-0.0288 0.4596,-0.1188 0.6168,-0.2724 0.15,-0.1572 0.228,-0.3504 0.228,-0.5832 0,-0.3264 -0.1152,-0.5856 -0.3468,-0.7824 -0.2316,-0.1944 -0.5388,-0.2916 -0.9144,-0.2952 -0.3444,0.004 -0.6132,0.066 -0.8136,0.1908 z"
         style="fill:#000000;fill-opacity:1;fill-rule:nonzero;stroke:none"
         id="path7240"
         inkscape:connector-curvature="0" />
      <path
         d="m 231.462,405.4824 0,0.4356 c 0.2436,-0.1632 0.4944,-0.2412 0.7476,-0.2376 0.2544,-0.004 0.4572,0.0684 0.6132,0.2148 0.1536,0.1416 0.2316,0.3324 0.2352,0.57 -0.004,0.2364 -0.0816,0.4176 -0.2376,0.552 -0.1596,0.132 -0.3888,0.2004 -0.6828,0.2004 -0.102,0 -0.2916,-0.012 -0.5628,-0.0312 l 0,1.8012 1.7364,0 0,-0.3696 -1.3488,0 0,-1.0524 c 0.1092,0.006 0.21,0.01 0.3072,0.01 0.3816,0 0.678,-0.0972 0.888,-0.2916 0.21,-0.1944 0.3156,-0.4608 0.3156,-0.7932 0,-0.3504 -0.1116,-0.6288 -0.3372,-0.8388 -0.2256,-0.21 -0.5352,-0.3132 -0.93,-0.3168 -0.3312,0.004 -0.582,0.0504 -0.744,0.1476 z"
         style="fill:#000000;fill-opacity:1;fill-rule:nonzero;stroke:none"
         id="path7242"
         inkscape:connector-curvature="0" />
      <path
         d="m 224.6868,408.8592 -1.422,-3.4644 -0.4248,0 1.3416,3.2232 -1.8084,0 0,0.3696 2.3136,0 0,-0.1284 z"
         style="fill:#000000;fill-opacity:1;fill-rule:nonzero;stroke:none"
         id="path7244"
         inkscape:connector-curvature="0" />
      <path
         d="m 213.6468,405.4536 0,0.3984 c 0.2004,-0.1188 0.4104,-0.1752 0.636,-0.1716 0.3228,-0.004 0.576,0.1284 0.7572,0.3912 0.1788,0.2628 0.27,0.636 0.2724,1.1208 -0.002,-0.004 -0.006,-0.004 -0.008,0 -0.1548,-0.3096 -0.42,-0.4632 -0.8016,-0.4632 -0.3072,0 -0.5604,0.1032 -0.7584,0.3132 -0.1968,0.2076 -0.294,0.4764 -0.294,0.8052 0,0.3504 0.1068,0.636 0.3228,0.8616 0.216,0.222 0.4944,0.3348 0.8328,0.3384 0.3528,-0.004 0.6288,-0.1416 0.8256,-0.42 0.198,-0.282 0.294,-0.69 0.2976,-1.2216 -0.004,-0.6636 -0.132,-1.1748 -0.384,-1.5312 -0.2604,-0.3576 -0.618,-0.5364 -1.0704,-0.54 -0.2448,0.004 -0.4512,0.0408 -0.6276,0.1188 z m 0.9216,3.246 c -0.2004,-0.004 -0.366,-0.078 -0.498,-0.2256 -0.132,-0.15 -0.1968,-0.3384 -0.1968,-0.5676 0,-0.2532 0.0624,-0.4536 0.1932,-0.5976 0.1248,-0.1476 0.3036,-0.2196 0.5292,-0.2172 0.1932,-0.002 0.3564,0.0636 0.4908,0.198 0.132,0.132 0.198,0.2952 0.2004,0.486 -0.002,0.27 -0.0684,0.492 -0.2004,0.6636 -0.1344,0.1728 -0.306,0.2568 -0.5184,0.2604 z"
         style="fill:#000000;fill-opacity:1;fill-rule:nonzero;stroke:none"
         id="path7246"
         inkscape:connector-curvature="0" />
      <path
         d="m 205.2912,405.3948 -2.0304,0 0,0.36 0.81,0 0,2.7912 -0.8328,-0.2484 0,0.3924 1.2432,0.3792 0,-3.3144 0.81,0 0,-0.36 z m 2.7636,0 -2.0304,0 0,0.36 0.81,0 0,2.7912 -0.8328,-0.2484 0,0.3924 1.2432,0.3792 0,-3.3144 0.81,0 0,-0.36 z"
         style="fill:#000000;fill-opacity:1;fill-rule:nonzero;stroke:none"
         id="path7248"
         inkscape:connector-curvature="0" />
      <path
         d="m 196.3872,405.3948 -2.0316,0 0,0.36 0.8112,0 0,2.7912 -0.8328,-0.2484 0,0.3924 1.2432,0.3792 0,-3.3144 0.81,0 0,-0.36 z m 0.6204,0.1308 0,0.4452 c 0.2436,-0.1968 0.5184,-0.294 0.8292,-0.2904 0.2472,-0.004 0.4476,0.0588 0.6,0.1872 0.1488,0.1224 0.2232,0.2916 0.2256,0.5076 -0.002,0.4668 -0.3384,0.702 -1.0008,0.7056 l -0.2976,0 0,0.3468 0.2844,0 c 0.5916,-0.004 0.8892,0.216 0.8892,0.6612 0,0.4032 -0.228,0.6072 -0.6792,0.6108 -0.2568,-0.004 -0.4944,-0.0876 -0.7128,-0.2568 l 0,0.4008 c 0.2244,0.1344 0.4968,0.2004 0.816,0.204 0.2976,-0.004 0.5376,-0.0816 0.7236,-0.2424 0.1776,-0.1584 0.2688,-0.366 0.2712,-0.6132 -0.002,-0.4764 -0.24,-0.78 -0.7188,-0.912 l 0,-0.012 c 0.2556,-0.0288 0.4596,-0.1188 0.6168,-0.2724 0.1488,-0.1572 0.228,-0.3504 0.228,-0.5832 0,-0.3264 -0.1164,-0.5856 -0.348,-0.7824 -0.2316,-0.1944 -0.5376,-0.2916 -0.9144,-0.2952 -0.3432,0.004 -0.6132,0.066 -0.8124,0.1908 z"
         style="fill:#000000;fill-opacity:1;fill-rule:nonzero;stroke:none"
         id="path7250"
         inkscape:connector-curvature="0" />
      <path
         d="m 187.434,405.3948 -2.0316,0 0,0.36 0.81,0 0,2.7912 -0.8316,-0.2484 0,0.3924 1.242,0.3792 0,-3.3144 0.8112,0 0,-0.36 z m 0.7044,0.0876 0,0.4356 c 0.2436,-0.1632 0.4944,-0.2412 0.7476,-0.2376 0.2532,-0.004 0.456,0.0684 0.6132,0.2148 0.1524,0.1416 0.2316,0.3324 0.2352,0.57 -0.004,0.2364 -0.0828,0.4176 -0.2388,0.552 -0.1596,0.132 -0.3888,0.2004 -0.6816,0.2004 -0.1044,0 -0.2916,-0.012 -0.564,-0.0312 l 0,1.8012 1.7376,0 0,-0.3696 -1.3488,0 0,-1.0524 c 0.1092,0.006 0.2088,0.01 0.306,0.01 0.3816,0 0.6792,-0.0972 0.8892,-0.2916 0.21,-0.1944 0.3156,-0.4608 0.3156,-0.7932 0,-0.3504 -0.1116,-0.6288 -0.3372,-0.8388 -0.2256,-0.21 -0.5364,-0.3132 -0.93,-0.3168 -0.3324,0.004 -0.582,0.0504 -0.744,0.1476 z"
         style="fill:#000000;fill-opacity:1;fill-rule:nonzero;stroke:none"
         id="path7252"
         inkscape:connector-curvature="0" />
      <path
         d="m 178.4448,405.3948 -2.0304,0 0,0.36 0.81,0 0,2.7912 -0.8328,-0.2484 0,0.3924 1.2432,0.3792 0,-3.3144 0.81,0 0,-0.36 z m 2.82,3.4644 -1.4208,-3.4644 -0.4248,0 1.3416,3.2232 -1.8084,0 0,0.3696 2.3124,0 0,-0.1284 z"
         style="fill:#000000;fill-opacity:1;fill-rule:nonzero;stroke:none"
         id="path7254"
         inkscape:connector-curvature="0" />
      <path
         d="m 169.5132,405.3948 -2.0316,0 0,0.36 0.8112,0 0,2.7912 -0.8328,-0.2484 0,0.3924 1.2432,0.3792 0,-3.3144 0.81,0 0,-0.36 z m 0.7224,0.0588 0,0.3984 c 0.2004,-0.1188 0.4104,-0.1752 0.636,-0.1716 0.3216,-0.004 0.5748,0.1284 0.7572,0.3912 0.1788,0.2628 0.2688,0.636 0.2724,1.1208 -0.004,-0.004 -0.007,-0.004 -0.01,0 -0.1536,-0.3096 -0.42,-0.4632 -0.8016,-0.4632 -0.306,0 -0.5604,0.1032 -0.7572,0.3132 -0.1968,0.2076 -0.294,0.4764 -0.294,0.8052 0,0.3504 0.1056,0.636 0.3228,0.8616 0.216,0.222 0.4932,0.3348 0.8316,0.3384 0.3528,-0.004 0.6288,-0.1416 0.8268,-0.42 0.1968,-0.282 0.294,-0.69 0.2964,-1.2216 -0.002,-0.6636 -0.1308,-1.1748 -0.384,-1.5312 -0.2592,-0.3576 -0.6168,-0.5364 -1.0704,-0.54 -0.2448,0.004 -0.4512,0.0408 -0.6264,0.1188 z m 0.9204,3.246 c -0.2004,-0.004 -0.366,-0.078 -0.498,-0.2256 -0.1308,-0.15 -0.1968,-0.3384 -0.1968,-0.5676 0,-0.2532 0.0624,-0.4536 0.1944,-0.5976 0.1248,-0.1476 0.3036,-0.2196 0.528,-0.2172 0.1956,-0.002 0.3576,0.0636 0.492,0.198 0.132,0.132 0.1968,0.2952 0.2004,0.486 -0.004,0.27 -0.0684,0.492 -0.2004,0.6636 -0.1344,0.1728 -0.3072,0.2568 -0.5196,0.2604 z"
         style="fill:#000000;fill-opacity:1;fill-rule:nonzero;stroke:none"
         id="path7256"
         inkscape:connector-curvature="0" />
      <path
         d="m 251.376,405.3948 -2.0316,0 0,0.36 0.8112,0 0,2.7912 -0.8328,-0.2484 0,0.3924 1.242,0.3792 0,-3.3144 0.8112,0 0,-0.36 z"
         style="fill:#000000;fill-opacity:1;fill-rule:nonzero;stroke:none"
         id="path7258"
         inkscape:connector-curvature="0" />
      <path
         d="m 246.9408,388.2132 -2.1624,0 0,0.366 1.0464,1.05 c 0.2652,0.2628 0.456,0.4848 0.5712,0.6672 0.1128,0.1752 0.1692,0.366 0.1728,0.57 -0.004,0.204 -0.0624,0.3636 -0.1788,0.4788 -0.1224,0.1128 -0.2916,0.1704 -0.5064,0.1728 -0.3228,-0.002 -0.6288,-0.138 -0.9204,-0.4104 l 0,0.432 c 0.2784,0.216 0.6036,0.3228 0.9792,0.3264 0.3156,-0.004 0.57,-0.0876 0.7536,-0.2604 0.1824,-0.1752 0.2724,-0.4104 0.276,-0.6984 -0.004,-0.2316 -0.066,-0.4572 -0.1908,-0.6768 -0.1248,-0.222 -0.354,-0.4944 -0.6828,-0.8172 l -0.8292,-0.8172 0,-0.0132 1.6716,0 0,-0.3696 z"
         style="fill:#000000;fill-opacity:1;fill-rule:nonzero;stroke:none"
         id="path7260"
         inkscape:connector-curvature="0" />
      <path
         d="m 238.2156,389.2308 -0.4608,0 0,-0.954 -0.4068,0 0,0.954 -1.686,0 0,0.2664 1.5996,2.3712 0.4932,0 0,-2.3052 0.4608,0 0,-0.3324 z m -0.8676,0.3324 0,1.5528 c -0.002,0.1104 0,0.2352 0.0132,0.3732 l -0.0132,0 c -0.024,-0.0624 -0.0708,-0.156 -0.1368,-0.2748 l -1.1016,-1.6512 1.2384,0 z"
         style="fill:#000000;fill-opacity:1;fill-rule:nonzero;stroke:none"
         id="path7262"
         inkscape:connector-curvature="0" />
      <path
         d="m 228.9168,391.7652 0,-0.3876 c -0.1872,0.09 -0.3852,0.138 -0.5844,0.1404 -0.3228,-0.002 -0.576,-0.144 -0.7668,-0.426 -0.1908,-0.2844 -0.288,-0.6636 -0.2856,-1.14 l 0.0108,0 c 0.162,0.3372 0.4368,0.5064 0.822,0.51 0.3096,-0.004 0.5604,-0.1032 0.7488,-0.3036 0.1836,-0.2004 0.2748,-0.4704 0.2772,-0.8088 -0.002,-0.3528 -0.108,-0.6408 -0.318,-0.864 -0.216,-0.2196 -0.486,-0.3288 -0.8076,-0.3324 -0.3636,0.004 -0.6456,0.1452 -0.8508,0.4296 -0.2076,0.2856 -0.3108,0.69 -0.3072,1.212 -0.004,0.6264 0.1308,1.128 0.4032,1.5072 0.2664,0.3732 0.6192,0.5604 1.0644,0.564 0.2472,-0.004 0.4464,-0.0348 0.594,-0.1008 z m -0.894,-1.6536 c -0.2172,0 -0.3888,-0.072 -0.5172,-0.216 -0.1344,-0.144 -0.2004,-0.3132 -0.1968,-0.5076 -0.004,-0.2436 0.0624,-0.4536 0.1932,-0.63 0.1284,-0.1752 0.3036,-0.2628 0.5232,-0.2592 0.2064,-0.004 0.3732,0.072 0.5016,0.2244 0.1248,0.1512 0.1872,0.342 0.1908,0.5772 -0.004,0.2496 -0.0636,0.4512 -0.186,0.5952 -0.1212,0.144 -0.294,0.216 -0.5088,0.216 z"
         style="fill:#000000;fill-opacity:1;fill-rule:nonzero;stroke:none"
         id="path7264"
         inkscape:connector-curvature="0" />
      <path
         d="m 218.6988,390.0984 0,0.0108 c -0.432,0.1968 -0.648,0.4884 -0.6444,0.87 -0.004,0.2568 0.096,0.4704 0.294,0.636 0.1944,0.1656 0.4476,0.2472 0.7608,0.2508 0.2808,-0.004 0.51,-0.0792 0.6912,-0.2316 0.1752,-0.1572 0.2664,-0.3576 0.2688,-0.5988 -0.002,-0.4008 -0.2244,-0.7116 -0.6624,-0.9264 l 0,-0.0108 c 0.5184,-0.1908 0.7812,-0.5136 0.7848,-0.9732 -0.004,-0.2976 -0.1092,-0.5364 -0.3216,-0.7092 -0.2136,-0.174 -0.5112,-0.2592 -0.8892,-0.2628 -0.3096,0.004 -0.564,0.0888 -0.7608,0.2604 -0.2004,0.1716 -0.3012,0.3972 -0.2976,0.6768 -0.004,0.4596 0.2568,0.7956 0.7764,1.008 z m 0.9516,0.8868 c -0.004,0.1632 -0.0528,0.2916 -0.1572,0.3888 -0.1032,0.0936 -0.2436,0.1416 -0.4224,0.144 -0.168,-0.002 -0.3132,-0.0528 -0.4248,-0.15 -0.12,-0.1008 -0.1752,-0.2256 -0.1728,-0.3792 -0.002,-0.3132 0.1908,-0.5484 0.582,-0.7056 0.3948,0.1608 0.5916,0.396 0.5952,0.702 z m -0.6204,-1.0836 c -0.4632,-0.1848 -0.6912,-0.4476 -0.6876,-0.792 -0.004,-0.1788 0.0624,-0.3264 0.2004,-0.4392 0.132,-0.1188 0.3072,-0.1752 0.5256,-0.1716 0.204,-0.004 0.372,0.0528 0.504,0.1692 0.1284,0.1092 0.1932,0.2532 0.1968,0.4284 -0.004,0.3576 -0.2508,0.6228 -0.7392,0.8052 z"
         style="fill:#000000;fill-opacity:1;fill-rule:nonzero;stroke:none"
         id="path7266"
         inkscape:connector-curvature="0" />
      <path
         d="m 209.7192,388.194 -2.0304,0 0,0.36 0.8112,0 0,2.7912 -0.8328,-0.2472 0,0.3912 1.242,0.3792 0,-3.3144 0.81,0 0,-0.36 z m 1.6404,-0.0588 c -0.3564,0.004 -0.6348,0.1524 -0.8328,0.4572 -0.1992,0.3036 -0.2964,0.7452 -0.2964,1.3248 0,0.6324 0.1032,1.1124 0.3096,1.4412 0.2064,0.3228 0.5064,0.486 0.9012,0.4884 0.7512,-0.002 1.1268,-0.6168 1.1268,-1.842 0,-0.6108 -0.1068,-1.074 -0.3192,-1.3908 -0.2124,-0.3192 -0.51,-0.4752 -0.8892,-0.4788 z m 0.06,3.3636 c -0.516,-0.004 -0.774,-0.522 -0.7704,-1.5588 -0.004,-0.978 0.2508,-1.464 0.7548,-1.4604 0.4944,-0.004 0.7416,0.492 0.744,1.4844 -0.002,1.0212 -0.246,1.5312 -0.7284,1.5348 z"
         style="fill:#000000;fill-opacity:1;fill-rule:nonzero;stroke:none"
         id="path7268"
         inkscape:connector-curvature="0" />
      <path
         d="m 200.838,388.194 -2.0316,0 0,0.36 0.8112,0 0,2.7912 -0.8328,-0.2472 0,0.3912 1.242,0.3792 0,-3.3144 0.8112,0 0,-0.36 z m 2.694,0 -2.1624,0 0,0.3672 1.0452,1.0488 c 0.2664,0.264 0.4572,0.486 0.5736,0.6684 0.1116,0.174 0.1692,0.366 0.1716,0.57 -0.002,0.2028 -0.0624,0.3624 -0.1776,0.4776 -0.1224,0.114 -0.2916,0.1692 -0.5076,0.1728 -0.3216,-0.004 -0.6288,-0.138 -0.9192,-0.4104 l 0,0.432 c 0.2772,0.2172 0.6036,0.324 0.978,0.3264 0.3168,-0.002 0.57,-0.0876 0.7548,-0.2604 0.1812,-0.174 0.2724,-0.4092 0.2748,-0.6984 -0.002,-0.2316 -0.066,-0.4572 -0.1908,-0.6756 -0.1248,-0.2232 -0.3528,-0.4956 -0.6816,-0.8184 l -0.8292,-0.8172 0,-0.012 1.6704,0 0,-0.3708 z"
         style="fill:#000000;fill-opacity:1;fill-rule:nonzero;stroke:none"
         id="path7270"
         inkscape:connector-curvature="0" />
      <path
         d="m 191.8248,388.194 -2.0316,0 0,0.36 0.8112,0 0,2.7912 -0.8328,-0.2472 0,0.3912 1.242,0.3792 0,-3.3144 0.8112,0 0,-0.36 z m 2.8788,0.9552 -0.4596,0 0,-0.9552 -0.4068,0 0,0.9552 -1.6872,0 0,0.2664 1.5984,2.3712 0.4956,0 0,-2.3052 0.4596,0 0,-0.3324 z m -0.8664,0.3324 0,1.554 c -0.004,0.1104 0,0.2352 0.012,0.3732 l -0.012,0 c -0.0252,-0.0636 -0.072,-0.1572 -0.138,-0.276 l -1.1016,-1.6512 1.2396,0 z"
         style="fill:#000000;fill-opacity:1;fill-rule:nonzero;stroke:none"
         id="path7272"
         inkscape:connector-curvature="0" />
      <path
         d="m 182.8956,388.194 -2.0316,0 0,0.36 0.8112,0 0,2.7912 -0.8328,-0.2472 0,0.3912 1.2432,0.3792 0,-3.3144 0.81,0 0,-0.36 z m 2.6292,3.5532 0,-0.3888 c -0.1884,0.0912 -0.3864,0.1368 -0.5856,0.1404 -0.3228,-0.004 -0.576,-0.144 -0.7668,-0.4248 -0.1908,-0.2856 -0.288,-0.6648 -0.2844,-1.1412 l 0.01,0 c 0.162,0.3384 0.4368,0.5076 0.822,0.5112 0.3108,-0.004 0.5604,-0.1032 0.7476,-0.3036 0.186,-0.2004 0.276,-0.4704 0.2796,-0.8088 -0.004,-0.354 -0.1104,-0.642 -0.3192,-0.864 -0.216,-0.2208 -0.486,-0.3288 -0.8076,-0.3324 -0.3624,0.004 -0.6444,0.144 -0.852,0.4296 -0.2052,0.2844 -0.3096,0.6876 -0.306,1.212 -0.004,0.6264 0.132,1.128 0.4032,1.5072 0.2664,0.372 0.6204,0.5604 1.0644,0.5628 0.2472,-0.002 0.4476,-0.0336 0.5952,-0.0996 z m -0.8952,-1.6548 c -0.216,0 -0.3888,-0.072 -0.5172,-0.216 -0.1344,-0.144 -0.1992,-0.3132 -0.1968,-0.5064 -0.002,-0.2448 0.0624,-0.4548 0.1944,-0.63 0.1284,-0.1752 0.3036,-0.264 0.5232,-0.2604 0.2052,-0.004 0.3708,0.072 0.5004,0.2256 0.1248,0.15 0.1872,0.3408 0.1908,0.576 -0.004,0.2508 -0.0624,0.4512 -0.186,0.5952 -0.1212,0.144 -0.2928,0.216 -0.5088,0.216 z"
         style="fill:#000000;fill-opacity:1;fill-rule:nonzero;stroke:none"
         id="path7274"
         inkscape:connector-curvature="0" />
      <path
         d="m 173.9796,388.194 -2.0328,0 0,0.36 0.8112,0 0,2.7912 -0.8328,-0.2472 0,0.3912 1.2432,0.3792 0,-3.3144 0.8112,0 0,-0.36 z m 1.3164,1.8864 0,0.01 c -0.432,0.1968 -0.6468,0.4884 -0.6444,0.87 -0.002,0.2568 0.0972,0.4704 0.2952,0.636 0.1932,0.1656 0.4464,0.2484 0.7596,0.2508 0.282,-0.002 0.5112,-0.078 0.6912,-0.2316 0.1764,-0.1572 0.2664,-0.3576 0.27,-0.5988 -0.004,-0.4008 -0.2256,-0.7104 -0.6636,-0.9264 l 0,-0.01 c 0.5184,-0.192 0.7824,-0.5136 0.7848,-0.9744 -0.002,-0.2976 -0.1092,-0.5352 -0.3216,-0.708 -0.2136,-0.1752 -0.5112,-0.2592 -0.8892,-0.2628 -0.3096,0.004 -0.5628,0.0876 -0.7596,0.2604 -0.2004,0.1716 -0.3012,0.3972 -0.2988,0.6768 -0.002,0.4596 0.258,0.7944 0.7764,1.008 z m 0.9516,0.8856 c -0.002,0.1632 -0.0528,0.2916 -0.156,0.3888 -0.1032,0.0948 -0.2436,0.1404 -0.4224,0.144 -0.1692,-0.004 -0.3132,-0.0528 -0.426,-0.15 -0.1188,-0.0996 -0.1752,-0.2256 -0.1716,-0.3792 -0.004,-0.3132 0.1908,-0.5484 0.5808,-0.7044 0.396,0.1596 0.5928,0.3948 0.5952,0.7008 z m -0.6192,-1.0836 c -0.4632,-0.1848 -0.6924,-0.4476 -0.6888,-0.792 -0.004,-0.1788 0.0624,-0.3252 0.2004,-0.4392 0.132,-0.1188 0.3072,-0.1752 0.5256,-0.1716 0.204,-0.004 0.372,0.0528 0.504,0.1692 0.1284,0.1092 0.1944,0.2544 0.1968,0.4296 -0.002,0.3564 -0.2496,0.6228 -0.738,0.804 z"
         style="fill:#000000;fill-opacity:1;fill-rule:nonzero;stroke:none"
         id="path7276"
         inkscape:connector-curvature="0" />
    </g>
  </g>
</svg>
