<?xml version="1.0" encoding="UTF-8" standalone="no"?>
<!-- Created with Inkscape (http://www.inkscape.org/) -->

<svg
   xmlns:dc="http://purl.org/dc/elements/1.1/"
   xmlns:cc="http://creativecommons.org/ns#"
   xmlns:rdf="http://www.w3.org/1999/02/22-rdf-syntax-ns#"
   xmlns:svg="http://www.w3.org/2000/svg"
   xmlns="http://www.w3.org/2000/svg"
   xmlns:sodipodi="http://sodipodi.sourceforge.net/DTD/sodipodi-0.dtd"
   xmlns:inkscape="http://www.inkscape.org/namespaces/inkscape"
   width="609.97455"
   height="100.44053"
   id="svg6329"
   version="1.1"
   inkscape:version="0.48.5 r10040"
   sodipodi:docname="hdmi.svg">
  <defs
     id="defs6331" />
  <sodipodi:namedview
     id="base"
     pagecolor="#ffffff"
     bordercolor="#666666"
     borderopacity="1.0"
     inkscape:pageopacity="0.0"
     inkscape:pageshadow="2"
     inkscape:zoom="0.98994949"
     inkscape:cx="296.77503"
     inkscape:cy="274.48134"
     inkscape:document-units="px"
     inkscape:current-layer="layer1"
     showgrid="false"
     fit-margin-top="5"
     fit-margin-left="5"
     fit-margin-right="5"
     fit-margin-bottom="5"
     inkscape:window-width="1280"
     inkscape:window-height="778"
     inkscape:window-x="0"
     inkscape:window-y="0"
     inkscape:window-maximized="1" />
  <metadata
     id="metadata6334">
    <rdf:RDF>
      <cc:Work
         rdf:about="">
        <dc:format>image/svg+xml</dc:format>
        <dc:type
           rdf:resource="http://purl.org/dc/dcmitype/StillImage" />
        <dc:title></dc:title>
      </cc:Work>
    </rdf:RDF>
  </metadata>
  <g
     inkscape:label="Layer 1"
     inkscape:groupmode="layer"
     id="layer1"
     transform="translate(-78.224971,-706.40298)">
    <g
       id="g10578"
       transform="matrix(4.6072588,0,0,-4.6072588,-580.20876,2857.2453)">
      <path
         d="m 144.0408,464.2152 4.6044,0.006 0.006,1.4796 121.128,0 0,-1.4796 4.3884,-0.0336 0,-18.0048 -130.1268,0"
         style="fill:#e6e6e6;fill-opacity:1;fill-rule:nonzero;stroke:none"
         id="path9705"
         inkscape:connector-curvature="0" />
      <path
         inkscape:connector-curvature="0"
         id="path9709"
         style="fill:none;stroke:#000000;stroke-width:0.06273391;stroke-linecap:round;stroke-linejoin:round;stroke-miterlimit:4;stroke-opacity:1;stroke-dasharray:none"
         d="m 144.04052,464.21497 4.6049,0.006 0.006,1.48004 121.1294,0 0,-1.48004 4.38895,-0.0346 0,-18.00284 -130.12928,0 0,18.03149 z" />
      <path
         d="m 146.8752,463.4292 2.4828,-0.012 0,1.2372 117.8028,-0.0576 0.03,-2.562 4.1664,0 0,-13.6896 -124.488,0"
         style="fill:#0b0b0b;fill-opacity:1;fill-rule:nonzero;stroke:none"
         id="path9711"
         inkscape:connector-curvature="0" />
      <path
         inkscape:connector-curvature="0"
         id="path9715"
         style="fill:none;stroke:#000000;stroke-width:0.06273391;stroke-linecap:round;stroke-linejoin:round;stroke-miterlimit:4;stroke-opacity:1;stroke-dasharray:none"
         d="m 146.8756,463.42959 2.48282,-0.0131 0,1.23775 117.8045,-0.0573 0.029,-2.56024 4.16577,0 0,-13.69042 -124.48807,0 0.006,15.08333 z" />
      <path
         d="m 144.9048,463.7988 3.864,0 0,-14.8572 7.7196,0 0,-2.3196 -11.5836,0"
         style="fill:#343434;fill-opacity:1;fill-rule:nonzero;stroke:none"
         id="path9717"
         inkscape:connector-curvature="0" />
      <path
         inkscape:connector-curvature="0"
         id="path9721"
         style="fill:none;stroke:#000000;stroke-width:0.06273391;stroke-linecap:round;stroke-linejoin:round;stroke-miterlimit:4;stroke-opacity:1;stroke-dasharray:none"
         d="m 144.90552,463.7996 3.86416,0 0,-14.85894 7.71868,0 0,-2.31794 -11.58284,0 0,17.17688 z" />
      <path
         d="m 272.6604,463.6656 -3.5064,0.0576 0,1.4688 -12.1368,0.03 -0.018,-16.35 -6.8196,0.012 0,-2.1408 22.4808,-0.005"
         style="fill:#343434;fill-opacity:1;fill-rule:nonzero;stroke:none"
         id="path9723"
         inkscape:connector-curvature="0" />
      <path
         inkscape:connector-curvature="0"
         id="path9727"
         style="fill:none;stroke:#000000;stroke-width:0.06273391;stroke-linecap:round;stroke-linejoin:round;stroke-miterlimit:4;stroke-opacity:1;stroke-dasharray:none"
         d="m 272.66178,463.66592 -3.50707,0.0573 0,1.46811 -12.13658,0.0298 -0.0169,-16.34972 -6.81989,0.0119 0,-2.1389 22.48043,-0.006 0,16.92742 z" />
      <path
         d="m 165.3756,446.2404 18.99048,0 0,2.04094 -18.99048,0 0,-2.04094 z"
         style="fill:#c3c3c3;fill-opacity:1;fill-rule:nonzero;stroke:none"
         id="path9729"
         inkscape:connector-curvature="0" />
      <path
         inkscape:connector-curvature="0"
         id="path9733"
         style="fill:none;stroke:#000000;stroke-width:0.03728484;stroke-linecap:butt;stroke-linejoin:miter;stroke-miterlimit:4;stroke-opacity:1;stroke-dasharray:none"
         d="m 165.37592,448.28224 18.99064,0 0,-2.03922 -18.99064,0 0,2.03922 z" />
      <path
         d="m 224.3004,446.2404 19.01484,0 0,2.05876 -19.01484,0 0,-2.05876 z"
         style="fill:#c3c3c3;fill-opacity:1;fill-rule:nonzero;stroke:none"
         id="path9735"
         inkscape:connector-curvature="0" />
      <path
         inkscape:connector-curvature="0"
         id="path9739"
         style="fill:none;stroke:#000000;stroke-width:0.03728484;stroke-linecap:butt;stroke-linejoin:miter;stroke-miterlimit:4;stroke-opacity:1;stroke-dasharray:none"
         d="m 224.30126,448.29839 19.01433,0 0,-2.05768 -19.01433,0 0,2.05768 z" />
      <path
         d="m 153.3252,464.7348 103.71468,0 0,0.94266 -103.71468,0 0,-0.94266 z"
         style="fill:#c3c3c3;fill-opacity:1;fill-rule:nonzero;stroke:none"
         id="path9741"
         inkscape:connector-curvature="0" />
      <path
         inkscape:connector-curvature="0"
         id="path9745"
         style="fill:none;stroke:#000000;stroke-width:0.03728486;stroke-linecap:butt;stroke-linejoin:miter;stroke-miterlimit:4;stroke-opacity:1;stroke-dasharray:none"
         d="m 153.32633,465.67711 103.71472,0 0,-0.94293 -103.71472,0 0,0.94293 z" />
      <path
         d="m 161.3136,448.422 4.00313,0 0,0.6525 -4.00313,0 0,-0.6525 z"
         style="fill:#ffcc00;fill-opacity:1;fill-rule:nonzero;stroke:none"
         id="path9747"
         inkscape:connector-curvature="0" />
      <path
         inkscape:connector-curvature="0"
         id="path9751"
         style="fill:none;stroke:#000000;stroke-width:0.03907128;stroke-linecap:butt;stroke-linejoin:miter;stroke-miterlimit:4;stroke-opacity:1;stroke-dasharray:none"
         d="m 161.31404,449.07435 4.00411,0 0,-0.6529 -4.00411,0 0,0.6529 z" />
      <path
         d="m 168.4368,448.422 4.00266,0 0,0.6525 -4.00266,0 0,-0.6525 z"
         style="fill:#ffcc00;fill-opacity:1;fill-rule:nonzero;stroke:none"
         id="path9753"
         inkscape:connector-curvature="0" />
      <path
         inkscape:connector-curvature="0"
         id="path9757"
         style="fill:none;stroke:#000000;stroke-width:0.03907128;stroke-linecap:butt;stroke-linejoin:miter;stroke-miterlimit:4;stroke-opacity:1;stroke-dasharray:none"
         d="m 168.43795,449.07435 4.0029,0 0,-0.6529 -4.0029,0 0,0.6529 z" />
      <path
         d="m 175.6308,448.422 4.00313,0 0,0.6525 -4.00313,0 0,-0.6525 z"
         style="fill:#ffcc00;fill-opacity:1;fill-rule:nonzero;stroke:none"
         id="path9759"
         inkscape:connector-curvature="0" />
      <path
         inkscape:connector-curvature="0"
         id="path9763"
         style="fill:none;stroke:#000000;stroke-width:0.03907128;stroke-linecap:butt;stroke-linejoin:miter;stroke-miterlimit:4;stroke-opacity:1;stroke-dasharray:none"
         d="m 175.63183,449.07435 4.0029,0 0,-0.6529 -4.0029,0 0,0.6529 z" />
      <path
         d="m 182.8416,448.422 4.00313,0 0,0.6525 -4.00313,0 0,-0.6525 z"
         style="fill:#ffcc00;fill-opacity:1;fill-rule:nonzero;stroke:none"
         id="path9765"
         inkscape:connector-curvature="0" />
      <path
         inkscape:connector-curvature="0"
         id="path9769"
         style="fill:none;stroke:#000000;stroke-width:0.03907128;stroke-linecap:butt;stroke-linejoin:miter;stroke-miterlimit:4;stroke-opacity:1;stroke-dasharray:none"
         d="m 182.8414,449.07435 4.0041,0 0,-0.6529 -4.0041,0 0,0.6529 z" />
      <path
         d="m 190.134,448.422 4.00876,0 0,0.6525 -4.00876,0 0,-0.6525 z"
         style="fill:#ffcc00;fill-opacity:1;fill-rule:nonzero;stroke:none"
         id="path9771"
         inkscape:connector-curvature="0" />
      <path
         inkscape:connector-curvature="0"
         id="path9775"
         style="fill:none;stroke:#000000;stroke-width:0.03907128;stroke-linecap:butt;stroke-linejoin:miter;stroke-miterlimit:4;stroke-opacity:1;stroke-dasharray:none"
         d="m 190.1342,449.07435 4.00894,0 0,-0.6529 -4.00894,0 0,0.6529 z" />
      <path
         d="m 197.2572,448.422 4.00876,0 0,0.6525 -4.00876,0 0,-0.6525 z"
         style="fill:#ffcc00;fill-opacity:1;fill-rule:nonzero;stroke:none"
         id="path9777"
         inkscape:connector-curvature="0" />
      <path
         inkscape:connector-curvature="0"
         id="path9781"
         style="fill:none;stroke:#000000;stroke-width:0.03907128;stroke-linecap:butt;stroke-linejoin:miter;stroke-miterlimit:4;stroke-opacity:1;stroke-dasharray:none"
         d="m 197.25811,449.07435 4.00894,0 0,-0.6529 -4.00894,0 0,0.6529 z" />
      <path
         d="m 204.456,448.422 4.00313,0 0,0.6525 -4.00313,0 0,-0.6525 z"
         style="fill:#ffcc00;fill-opacity:1;fill-rule:nonzero;stroke:none"
         id="path9783"
         inkscape:connector-curvature="0" />
      <path
         inkscape:connector-curvature="0"
         id="path9787"
         style="fill:none;stroke:#000000;stroke-width:0.03907128;stroke-linecap:butt;stroke-linejoin:miter;stroke-miterlimit:4;stroke-opacity:1;stroke-dasharray:none"
         d="m 204.45682,449.07435 4.0029,0 0,-0.6529 -4.0029,0 0,0.6529 z" />
      <path
         d="m 211.7664,448.422 4.00876,0 0,0.6525 -4.00876,0 0,-0.6525 z"
         style="fill:#ffcc00;fill-opacity:1;fill-rule:nonzero;stroke:none"
         id="path9789"
         inkscape:connector-curvature="0" />
      <path
         inkscape:connector-curvature="0"
         id="path9793"
         style="fill:none;stroke:#000000;stroke-width:0.03907128;stroke-linecap:butt;stroke-linejoin:miter;stroke-miterlimit:4;stroke-opacity:1;stroke-dasharray:none"
         d="m 211.76652,449.07435 4.00894,0 0,-0.6529 -4.00894,0 0,0.6529 z" />
      <path
         d="m 219.0348,448.422 4.00922,0 0,0.6525 -4.00922,0 0,-0.6525 z"
         style="fill:#ffcc00;fill-opacity:1;fill-rule:nonzero;stroke:none"
         id="path9795"
         inkscape:connector-curvature="0" />
      <path
         inkscape:connector-curvature="0"
         id="path9799"
         style="fill:none;stroke:#000000;stroke-width:0.03907128;stroke-linecap:butt;stroke-linejoin:miter;stroke-miterlimit:4;stroke-opacity:1;stroke-dasharray:none"
         d="m 219.0352,449.07435 4.01014,0 0,-0.6529 -4.01014,0 0,0.6529 z" />
      <path
         d="m 222.1212,452.1264 0,0.4632 -0.702,0 0,5.4504 -1.3548,-0.6876 0.0924,-0.5076 0.7248,0.4044 0,-4.6656 -0.7596,0 0,-0.4572"
         style="fill:#f9f9f9;fill-opacity:1;fill-rule:nonzero;stroke:none"
         id="path9801"
         inkscape:connector-curvature="0" />
      <path
         d="m 162.4068,452.0568 c 0.2856,0.2268 0.5676,0.48 0.8532,0.7764 0.2808,0.288 0.5316,0.606 0.7536,0.9408 0.216,0.336 0.3984,0.6876 0.5376,1.0644 0.1344,0.3636 0.204,0.7452 0.204,1.1448 0,0.2772 -0.0396,0.5436 -0.1104,0.804 -0.0816,0.2532 -0.1932,0.486 -0.3336,0.6804 -0.1512,0.1968 -0.3336,0.354 -0.5544,0.4692 -0.228,0.1152 -0.4908,0.174 -0.7884,0.174 -0.3744,0 -0.69,-0.0924 -0.9348,-0.2772 -0.258,-0.186 -0.4452,-0.4116 -0.5676,-0.6768 -0.1284,-0.2724 -0.192,-0.5664 -0.192,-0.8844 -0.007,-0.324 0.0516,-0.6252 0.174,-0.8916 0.1176,-0.276 0.2976,-0.5028 0.5496,-0.6816 0.2448,-0.186 0.5544,-0.2772 0.9288,-0.2712 0.1872,-0.006 0.3804,0.0336 0.5724,0.1152 0.1872,0.0756 0.3564,0.1788 0.5028,0.318 -0.0924,-0.2484 -0.21,-0.4788 -0.3492,-0.6996 -0.1416,-0.2256 -0.2976,-0.4392 -0.4692,-0.6468 -0.1752,-0.2088 -0.3564,-0.4056 -0.5484,-0.5904 -0.1932,-0.1848 -0.3864,-0.3588 -0.5796,-0.5088 l 0.3516,-0.3588 z m 1.794,3.8388 c -0.006,-0.1908 -0.0648,-0.3576 -0.1752,-0.4968 -0.1224,-0.1512 -0.2688,-0.2604 -0.444,-0.336 -0.1812,-0.0864 -0.3744,-0.132 -0.5784,-0.132 -0.2052,-0.012 -0.3972,0.0288 -0.5736,0.1224 -0.1812,0.0792 -0.3264,0.2184 -0.444,0.4092 -0.1164,0.1848 -0.1752,0.4332 -0.1752,0.7404 0,0.1728 0.024,0.3396 0.0696,0.5088 0.0468,0.1608 0.1176,0.312 0.2172,0.4452 0.0936,0.126 0.21,0.2316 0.3564,0.3168 0.1404,0.0756 0.3096,0.1164 0.4968,0.1212 0.2448,-0.005 0.45,-0.0516 0.6132,-0.1428 0.1644,-0.0996 0.2868,-0.2316 0.3804,-0.3888 0.0876,-0.1608 0.1584,-0.3396 0.198,-0.5424 0.0348,-0.2088 0.0528,-0.4164 0.0588,-0.6252"
         style="fill:#f9f9f9;fill-opacity:1;fill-rule:nonzero;stroke:none"
         id="path9803"
         inkscape:connector-curvature="0" />
    </g>
  </g>
</svg>
