<?xml version="1.0" encoding="UTF-8" standalone="no"?>
<!-- Created with Inkscape (http://www.inkscape.org/) -->

<svg
   xmlns:dc="http://purl.org/dc/elements/1.1/"
   xmlns:cc="http://creativecommons.org/ns#"
   xmlns:rdf="http://www.w3.org/1999/02/22-rdf-syntax-ns#"
   xmlns:svg="http://www.w3.org/2000/svg"
   xmlns="http://www.w3.org/2000/svg"
   xmlns:sodipodi="http://sodipodi.sourceforge.net/DTD/sodipodi-0.dtd"
   xmlns:inkscape="http://www.inkscape.org/namespaces/inkscape"
   width="210.00108"
   height="428.47256"
   id="svg6329"
   version="1.1"
   inkscape:version="0.48.5 r10040"
   sodipodi:docname="usbport.svg">
  <defs
     id="defs6331" />
  <sodipodi:namedview
     id="base"
     pagecolor="#ffffff"
     bordercolor="#666666"
     borderopacity="1.0"
     inkscape:pageopacity="0.0"
     inkscape:pageshadow="2"
     inkscape:zoom="0.98994949"
     inkscape:cx="105.01046"
     inkscape:cy="214.23626"
     inkscape:document-units="px"
     inkscape:current-layer="layer1"
     showgrid="false"
     fit-margin-top="5"
     fit-margin-left="5"
     fit-margin-right="5"
     fit-margin-bottom="5"
     inkscape:window-width="1280"
     inkscape:window-height="778"
     inkscape:window-x="0"
     inkscape:window-y="0"
     inkscape:window-maximized="1" />
  <metadata
     id="metadata6334">
    <rdf:RDF>
      <cc:Work
         rdf:about="">
        <dc:format>image/svg+xml</dc:format>
        <dc:type
           rdf:resource="http://purl.org/dc/dcmitype/StillImage" />
        <dc:title></dc:title>
      </cc:Work>
    </rdf:RDF>
  </metadata>
  <g
     inkscape:label="Layer 1"
     inkscape:groupmode="layer"
     id="layer1"
     transform="translate(-269.98954,-318.12586)">
    <g
       id="g6837">
      <path
         d="m 276.44448,632.45142 196.59564,0 0,-183.71286 -196.59564,0 0,183.71286 z"
         style="fill:#ffffff;fill-opacity:1;fill-rule:nonzero;stroke:none"
         id="path4981"
         inkscape:connector-curvature="0" />
      <path
         inkscape:connector-curvature="0"
         id="path4985"
         style="fill:none;stroke:#000000;stroke-width:2.88748789;stroke-linecap:round;stroke-linejoin:round;stroke-miterlimit:3.98214006;stroke-opacity:1;stroke-dasharray:none"
         d="m 276.44376,632.44353 0,-183.71417 196.59342,0 0,183.71417 -196.59342,0 z" />
      <path
         d="m 291.04523,509.11741 c 0,0.37964 -0.16145,0.75492 -0.46691,1.01237 -0.28363,0.23564 -0.65454,0.35346 -1.03418,0.30546 l -6.83346,-0.93819 c -0.65455,-0.096 -1.14764,-0.66327 -1.14764,-1.31782 l -0.0218,-21.61749 c 0,-0.65891 0.49309,-1.22618 1.12146,-1.31345 l 6.85528,-0.97309 c 0.384,-0.0393 0.75491,0.0524 1.03855,0.30981 0.27927,0.25746 0.44509,0.61528 0.44509,1.01237 l 0.0436,23.52003 z m 0,85.03431 c 0,0.37964 -0.16145,0.75055 -0.46691,0.99492 -0.28363,0.25309 -0.65454,0.3709 -1.03418,0.3229 l -6.83346,-0.93818 c -0.65455,-0.096 -1.14764,-0.65891 -1.14764,-1.31782 l -0.0218,-21.61749 c 0,-0.65891 0.49309,-1.22182 1.12146,-1.31345 l 6.85528,-0.92073 c 0.384,-0.0698 0.75491,0.0436 1.03855,0.30545 0.27927,0.25746 0.44509,0.61528 0.44509,1.01237 l 0.0436,23.47203 z m -9.80947,25.45313 c -0.0255,1.76728 0.67637,3.46037 1.90255,4.70401 1.24364,1.248 3.7091,2.33019 7.90692,1.95055 l 2.58764,0 c 2.18182,0 3.94037,1.78909 3.94037,3.97964 0,0.82037 0.23564,1.57528 0.65455,2.21237 l 53.85172,0 c 0.40145,-0.63709 0.65891,-1.392 0.65891,-2.21237 0,-2.19055 1.76291,-3.97964 3.91855,-3.97964 l 8.75783,0 0.0698,-172.7479 -9.45602,0.0255 c -1.83273,0 -3.29018,-1.50546 -3.29018,-3.34255 0,-0.51928 -0.11782,-1.01237 -0.32728,-1.45746 l -54.48444,-0.0255 c -0.24,0.44509 -0.35346,0.94254 -0.35346,1.48363 0,1.8371 -1.45309,3.31637 -3.28582,3.31637 l -3.24219,0.0255 c -5.58546,-0.20946 -6.6371,0.68073 -7.88074,1.92436 -1.22618,1.24801 -1.92873,2.9411 -1.92873,4.73019 0,3.64801 0.25746,6.61092 -3.35564,6.58474 -0.47563,0 -0.94254,0.0742 -1.38764,0.16146 l 0.0742,52.88735 c 0.41891,0.0655 0.864,0.11345 1.31345,0.11345 1.76291,0 3.42546,0.70255 4.6691,1.95055 1.22182,1.248 1.92437,2.94546 1.92437,4.70837 l 0,26.58331 c 0,1.76292 -0.70255,3.45601 -1.92437,4.69965 -1.24364,1.248 -2.90619,1.95055 -4.6691,1.95055 -0.47563,0 -0.94254,0.0524 -1.41382,0.17018 l 0,52.78262 c 0.47128,0.11782 0.93819,0.16582 1.41382,0.16582 3.02837,0.79418 2.95855,2.72728 3.35564,6.65456 z"
         style="fill:#ffffff;fill-opacity:1;fill-rule:nonzero;stroke:none"
         id="path4987"
         inkscape:connector-curvature="0" />
      <path
         inkscape:connector-curvature="0"
         id="path4991"
         style="fill:none;stroke:#000000;stroke-width:2.88748908;stroke-linecap:round;stroke-linejoin:round;stroke-miterlimit:3.98214006;stroke-opacity:1;stroke-dasharray:none"
         d="m 291.048,509.11171 c 0,0.38192 -0.16473,0.75509 -0.46844,1.01407 -0.28618,0.23273 -0.65927,0.35564 -1.03662,0.30727 l -6.82692,-0.93945 c -0.65491,-0.0967 -1.14938,-0.66288 -1.14938,-1.32139 l -0.0255,-21.61636 c 0,-0.65851 0.49444,-1.2248 1.12768,-1.31262 l 6.85295,-0.97018 c 0.37302,-0.044 0.75469,0.0484 1.0323,0.30727 0.28181,0.25891 0.44672,0.61459 0.44672,1.00968 l 0.0476,23.52163 z m 0,85.03427 c 0,0.37756 -0.16473,0.75509 -0.46844,0.99655 -0.28618,0.25018 -0.65927,0.37312 -1.03662,0.32036 l -6.82692,-0.93946 c -0.65491,-0.0924 -1.14938,-0.65411 -1.14938,-1.31702 l -0.0255,-21.61636 c 0,-0.65847 0.49444,-1.2248 1.12768,-1.31258 l 6.85295,-0.92193 c 0.37302,-0.0658 0.75469,0.0484 1.0323,0.30727 0.28181,0.25891 0.44672,0.61462 0.44672,1.00972 l 0.0476,23.4733 z m -9.811,25.4576 c -0.0218,1.7604 0.68098,3.45495 1.89975,4.70172 1.24047,1.24676 3.70408,2.33109 7.91125,1.94913 l 2.58502,0 c 2.18167,0 3.94262,1.79113 3.94262,3.98175 0,0.81655 0.23419,1.5716 0.65495,2.20815 l 53.85193,0 c 0.3947,-0.63655 0.65928,-1.3916 0.65928,-2.20815 0,-2.19062 1.75229,-3.98175 3.91226,-3.98175 l 8.76136,0 0.0695,-172.74644 -9.45965,0.0218 c -1.83469,0 -3.28335,-1.50574 -3.28335,-3.34076 0,-0.51804 -0.12145,-1.01412 -0.33382,-1.4575 l -54.48088,-0.0218 c -0.23855,0.44342 -0.35127,0.93946 -0.35127,1.47946 0,1.83502 -1.45735,3.31884 -3.28768,3.31884 l -3.23997,0.0218 c -5.58644,-0.21091 -6.64474,0.68047 -7.88954,1.9272 -1.2188,1.24677 -1.92146,2.94132 -1.92146,4.72805 0,3.64808 0.25601,6.61135 -3.36138,6.58939 -0.46844,0 -0.93688,0.0702 -1.37928,0.15818 l 0.0651,52.88633 c 0.42506,0.0658 0.86746,0.11419 1.31422,0.11419 1.76095,0 3.43081,0.70676 4.67128,1.95353 1.22746,1.24236 1.92575,2.94131 1.92575,4.70608 l 0,26.58145 c 0,1.76477 -0.69829,3.45492 -1.92575,4.70168 -1.24047,1.24677 -2.91033,1.95357 -4.67128,1.95357 -0.46843,0 -0.93687,0.0484 -1.40094,0.16691 l 0,52.78095 c 0.46407,0.12291 0.93251,0.17128 1.40094,0.17128 3.03175,0.79458 2.95804,2.72618 3.36139,6.65521 z" />
      <path
         d="m 365.69844,453.51151 -77.72958,0 c -1.78473,0 -3.47345,0.70691 -4.73891,1.95055 -1.24364,1.248 -1.94619,2.9411 -1.94619,4.70401 l 0,24.86404 1.78473,-0.28364 c 0.37091,-0.0655 0.77237,0.048 1.08219,0.30982 0.27491,0.23563 0.44509,0.61091 0.44509,0.98618 l 0.0218,22.60367 c 0,0.37964 -0.17019,0.75491 -0.46691,1.01237 -0.28364,0.23563 -0.68509,0.35782 -1.06037,0.30982 l -1.85455,-0.28364 0.048,60.40591 1.78473,-0.28364 c 0.37091,-0.0436 0.77237,0.0698 1.05601,0.30546 0.30109,0.26181 0.47127,0.63709 0.47127,1.01236 l 0.0218,22.60367 c 0,0.37964 -0.17019,0.75491 -0.46691,1.01237 -0.28364,0.23563 -0.68509,0.35781 -1.06037,0.30981 l -1.88073,-0.28363 0.048,24.83785 c 0,1.76728 0.70255,3.46037 1.97237,4.70401 1.24364,1.248 2.95418,1.95055 4.7171,1.95055 l 77.8212,0 -0.096,-172.7479 0.0255,0 z"
         style="fill:#ffffff;fill-opacity:1;fill-rule:nonzero;stroke:none"
         id="path4993"
         inkscape:connector-curvature="0" />
      <path
         inkscape:connector-curvature="0"
         id="path4997"
         style="fill:none;stroke:#000000;stroke-width:2.88748789;stroke-linecap:round;stroke-linejoin:round;stroke-miterlimit:3.98214006;stroke-opacity:1;stroke-dasharray:none"
         d="m 365.6936,453.50508 -77.72299,0 c -1.78408,0 -3.47113,0.70353 -4.74066,1.95269 -1.24419,1.24466 -1.94855,2.93579 -1.94855,4.70357 l 0,24.86171 1.78408,-0.284 c 0.37538,-0.0633 0.77181,0.0495 1.08392,0.31127 0.28255,0.23455 0.44288,0.61331 0.44288,0.9831 l 0.0254,22.60687 c 0,0.37883 -0.16436,0.75313 -0.46818,1.01469 -0.28255,0.23455 -0.68324,0.35164 -1.05862,0.30655 l -1.85157,-0.28401 0.0422,60.40675 1.78407,-0.284 c 0.37538,-0.0407 0.77182,0.072 1.0544,0.30655 0.312,0.26145 0.4724,0.63589 0.4724,1.01018 l 0.0255,22.60687 c 0,0.3788 -0.16437,0.75313 -0.46818,1.01015 -0.28255,0.23891 -0.68324,0.35636 -1.05862,0.31127 l -1.87688,-0.284 0.0465,24.83913 c 0,1.76327 0.70436,3.45891 1.96963,4.70357 1.24422,1.24465 2.95659,1.95269 4.71958,1.95269 l 77.81579,0 -0.0927,-172.7512 0.0218,0 z" />
      <path
         d="m 359.96897,470.63881 0,139.15657 c 0,0.70691 -0.17018,1.39201 -0.44509,1.8851 l -0.61527,1.12582 c -0.27928,0.49309 -0.41891,1.17382 -0.41891,1.86327 l -0.0255,9.57384 c 0,0.72872 0.32728,1.31345 0.75491,1.31345 l 0.56291,0.048 c 0.11346,0 0.18764,0.144 0.18764,0.33164 0,0.16145 0.0916,0.32291 0.18764,0.32291 l 5.07055,0 -0.096,-172.7479 -4.79128,0 c -0.20945,0 -0.37091,0.30546 -0.37091,0.68073 l 0,-0.0255 c 0,0.384 -0.17018,0.68945 -0.37964,0.68945 l 0,-0.0255 c -0.60654,0 -1.09963,0.89454 -1.09963,2.00291 l -0.0255,8.93238 c 0,0.68509 0.16582,1.37018 0.44509,1.86327 l 0.61528,1.12582 c 0.27491,0.49309 0.42327,1.17819 0.42327,1.8851 l 0.0218,0 z"
         style="fill:#ffffff;fill-opacity:1;fill-rule:nonzero;stroke:none"
         id="path4999"
         inkscape:connector-curvature="0" />
      <path
         inkscape:connector-curvature="0"
         id="path5003"
         style="fill:none;stroke:#000000;stroke-width:2.88748789;stroke-linecap:round;stroke-linejoin:round;stroke-miterlimit:3.98214006;stroke-opacity:1;stroke-dasharray:none"
         d="m 359.96603,470.63274 0,139.15879 c 0,0.70353 -0.16437,1.38898 -0.44709,1.88506 l -0.60731,1.12287 c -0.28255,0.49608 -0.42179,1.17702 -0.42179,1.86251 l -0.0291,9.57398 c 0,0.73055 0.33309,1.31229 0.75917,1.31229 l 0.56098,0.0495 c 0.11818,0 0.18545,0.14436 0.18545,0.33382 0,0.15782 0.0971,0.32473 0.19382,0.32473 l 5.06543,0 -0.0927,-172.75121 -4.78702,0 c -0.21528,0 -0.3796,0.30655 -0.3796,0.68098 l 0,-0.0218 c 0,0.3788 -0.16437,0.68545 -0.37117,0.68545 l 0,-0.0218 c -0.61578,0 -1.10502,0.8884 -1.10502,1.99779 l -0.0291,8.93361 c 0,0.68095 0.16873,1.3664 0.45131,1.86248 l 0.60731,1.12742 c 0.28255,0.49152 0.426,1.17702 0.426,1.88502 l 0.0218,0 z" />
      <path
         d="m 300.60161,600.81064 0,-121.846 c 0,-0.84654 0.63273,-1.52727 1.43128,-1.52727 l 4.78691,0 c 0.80291,0 1.43128,0.68073 1.43128,1.52727 l 0,121.846 c 0,0.85091 -0.62837,1.53164 -1.43128,1.53164 l -4.78691,0 c -0.79855,0 -1.43128,-0.68073 -1.43128,-1.53164 z"
         style="fill:#ffffff;fill-opacity:1;fill-rule:nonzero;stroke:none"
         id="path5005"
         inkscape:connector-curvature="0" />
      <path
         inkscape:connector-curvature="0"
         id="path5009"
         style="fill:none;stroke:#000000;stroke-width:2.88748837;stroke-linecap:round;stroke-linejoin:round;stroke-miterlimit:3.98214006;stroke-opacity:1;stroke-dasharray:none"
         d="m 300.60063,600.80817 0,-121.84691 c 0,-0.85098 0.63647,-1.52826 1.43102,-1.52826 l 4.78859,0 c 0.80309,0 1.43102,0.67728 1.43102,1.52826 l 0,121.84691 c 0,0.84655 -0.62793,1.52826 -1.43102,1.52826 l -4.78859,0 c -0.79455,0 -1.43102,-0.68171 -1.43102,-1.52826 z" />
      <path
         d="m 296.79651,606.31756 0,-132.88165 3.83128,3.97528 0,124.93109 -3.83128,3.97528 z"
         style="fill:#ffffff;fill-opacity:1;fill-rule:nonzero;stroke:none"
         id="path5011"
         inkscape:connector-curvature="0" />
      <path
         inkscape:connector-curvature="0"
         id="path5015"
         style="fill:none;stroke:#000000;stroke-width:2.88748837;stroke-linecap:round;stroke-linejoin:round;stroke-miterlimit:3.98214006;stroke-opacity:1;stroke-dasharray:none"
         d="m 296.79451,606.3108 0,-132.87889 3.83172,3.97437 0,124.93015 -3.83172,3.97437 z" />
      <path
         d="m 308.22926,602.34228 1.31346,3.97528 -12.76802,0 3.82691,-3.97528 7.62765,0 z"
         style="fill:#ffffff;fill-opacity:1;fill-rule:nonzero;stroke:none"
         id="path5017"
         inkscape:connector-curvature="0" />
      <path
         inkscape:connector-curvature="0"
         id="path5021"
         style="fill:none;stroke:#000000;stroke-width:2.88748837;stroke-linecap:round;stroke-linejoin:round;stroke-miterlimit:3.98214006;stroke-opacity:1;stroke-dasharray:none"
         d="m 308.22562,602.33643 1.31997,3.97437 -12.77242,0 3.82746,-3.97437 7.62499,0 z" />
      <path
         d="m 300.60161,477.43737 -3.82691,-3.97965 12.76802,0 -1.31346,3.97965 -7.62765,0 z"
         style="fill:#ffffff;fill-opacity:1;fill-rule:nonzero;stroke:none"
         id="path5023"
         inkscape:connector-curvature="0" />
      <path
         inkscape:connector-curvature="0"
         id="path5027"
         style="fill:none;stroke:#000000;stroke-width:2.88748837;stroke-linecap:round;stroke-linejoin:round;stroke-miterlimit:3.98214006;stroke-opacity:1;stroke-dasharray:none"
         d="m 300.60063,477.433 -3.82746,-3.97884 12.77242,0 -1.31997,3.97884 -7.62499,0 z" />
      <path
         d="m 309.54272,606.31756 -1.31346,-3.97528 0,-124.93109 1.31346,-3.97528 0,132.88165 z"
         style="fill:#ffffff;fill-opacity:1;fill-rule:nonzero;stroke:none"
         id="path5029"
         inkscape:connector-curvature="0" />
      <path
         inkscape:connector-curvature="0"
         id="path5033"
         style="fill:none;stroke:#000000;stroke-width:2.88748837;stroke-linecap:round;stroke-linejoin:round;stroke-miterlimit:3.98214006;stroke-opacity:1;stroke-dasharray:none"
         d="m 309.54559,606.3108 -1.31997,-3.97437 0,-124.93015 1.31997,-3.97437 0,132.87889 z" />
      <path
         d="m 308.25108,591.8259 0,-10.86983 c 0,-0.65455 0.51927,-1.19564 1.15636,-1.19564 l 1.52728,0 c 0.62836,0 1.14327,0.54109 1.14327,1.19564 l 0,10.86983 c 0,0.65891 -0.51491,1.2 -1.14327,1.2 l -1.52728,0 c -0.63709,0 -1.15636,-0.54109 -1.15636,-1.2 z"
         style="fill:#ffffff;fill-opacity:1;fill-rule:nonzero;stroke:none"
         id="path5035"
         inkscape:connector-curvature="0" />
      <path
         inkscape:connector-curvature="0"
         id="path5039"
         style="fill:none;stroke:#000000;stroke-width:2.88748837;stroke-linecap:round;stroke-linejoin:round;stroke-miterlimit:3.98214006;stroke-opacity:1;stroke-dasharray:none"
         d="m 308.25126,591.82125 0,-10.86718 c 0,-0.65942 0.52113,-1.19855 1.15335,-1.19855 l 1.52502,0 c 0.63647,0 1.14909,0.53913 1.14909,1.19855 l 0,10.86718 c 0,0.65942 -0.51262,1.19855 -1.14909,1.19855 l -1.52502,0 c -0.63222,0 -1.15335,-0.53913 -1.15335,-1.19855 z" />
      <path
         d="m 308.25108,498.81485 0,-10.86547 c 0,-0.65891 0.51927,-1.22182 1.15636,-1.22182 l 1.52728,0 c 0.62836,0 1.14327,0.56291 1.14327,1.22182 l 0,10.86547 c 0,0.66328 -0.51491,1.20437 -1.14327,1.20437 l -1.52728,0 c -0.63709,0 -1.15636,-0.54109 -1.15636,-1.20437 z"
         style="fill:#ffffff;fill-opacity:1;fill-rule:nonzero;stroke:none"
         id="path5041"
         inkscape:connector-curvature="0" />
      <path
         inkscape:connector-curvature="0"
         id="path5045"
         style="fill:none;stroke:#000000;stroke-width:2.88748837;stroke-linecap:round;stroke-linejoin:round;stroke-miterlimit:3.98214006;stroke-opacity:1;stroke-dasharray:none"
         d="m 308.25126,498.81089 0,-10.86714 c 0,-0.65942 0.52113,-1.22084 1.15335,-1.22084 l 1.52502,0 c 0.63647,0 1.14909,0.56142 1.14909,1.22084 l 0,10.86714 c 0,0.65946 -0.51262,1.20302 -1.14909,1.20302 l -1.52502,0 c -0.63222,0 -1.15335,-0.54356 -1.15335,-1.20302 z" />
      <path
         d="m 308.25108,558.60985 0,-10.86983 c 0,-0.68073 0.51927,-1.22182 1.15636,-1.22182 l 1.52728,0 c 0.62836,0 1.14327,0.54109 1.14327,1.22182 l 0,10.86983 c 0,0.65891 -0.51491,1.2 -1.14327,1.2 l -1.52728,0 c -0.63709,0 -1.15636,-0.54109 -1.15636,-1.2 z"
         style="fill:#ffffff;fill-opacity:1;fill-rule:nonzero;stroke:none"
         id="path5047"
         inkscape:connector-curvature="0" />
      <path
         inkscape:connector-curvature="0"
         id="path5051"
         style="fill:none;stroke:#000000;stroke-width:2.88748837;stroke-linecap:round;stroke-linejoin:round;stroke-miterlimit:3.98214006;stroke-opacity:1;stroke-dasharray:none"
         d="m 308.25126,558.60487 0,-10.86718 c 0,-0.68171 0.52113,-1.22527 1.15335,-1.22527 l 1.52502,0 c 0.63647,0 1.14909,0.54356 1.14909,1.22527 l 0,10.86718 c 0,0.65942 -0.51262,1.19855 -1.14909,1.19855 l -1.52502,0 c -0.63222,0 -1.15335,-0.53913 -1.15335,-1.19855 z" />
      <path
         d="m 308.25108,532.0309 0,-10.86983 c 0,-0.65455 0.51927,-1.19564 1.15636,-1.19564 l 1.52728,0 c 0.62836,0 1.14327,0.54109 1.14327,1.19564 l 0,10.86983 c 0,0.65455 -0.51491,1.22182 -1.14327,1.22182 l -1.52728,0 c -0.63709,0 -1.15636,-0.56727 -1.15636,-1.22182 z"
         style="fill:#ffffff;fill-opacity:1;fill-rule:nonzero;stroke:none"
         id="path5053"
         inkscape:connector-curvature="0" />
      <path
         inkscape:connector-curvature="0"
         id="path5057"
         style="fill:none;stroke:#000000;stroke-width:2.88748837;stroke-linecap:round;stroke-linejoin:round;stroke-miterlimit:3.98214006;stroke-opacity:1;stroke-dasharray:none"
         d="m 308.25126,532.0273 0,-10.87165 c 0,-0.65495 0.52113,-1.19855 1.15335,-1.19855 l 1.52502,0 c 0.63647,0 1.14909,0.5436 1.14909,1.19855 l 0,10.87165 c 0,0.65495 -0.51262,1.22081 -1.14909,1.22081 l -1.52502,0 c -0.63222,0 -1.15335,-0.56586 -1.15335,-1.22081 z" />
      <path
         d="m 354.45333,591.70808 0,-18.22693 c 0,-0.54546 0.30545,-1.01237 0.77236,-1.22619 0.47128,-0.20945 1.01237,-0.11781 1.38328,0.26182 0.70254,0.72873 1.47927,1.29164 2.256,1.71491 0.41891,0.20946 0.70255,0.68073 0.70255,1.17382 l 0,14.37384 c 0,0.51928 -0.26182,0.96437 -0.70255,1.20001 -0.77673,0.40145 -1.52727,0.96436 -2.256,1.66691 -0.37091,0.37963 -0.912,0.47563 -1.38328,0.25745 -0.46691,-0.20945 -0.77236,-0.68073 -0.77236,-1.22182 l 0,0.0255 z"
         style="fill:#ffffff;fill-opacity:1;fill-rule:nonzero;stroke:none"
         id="path5059"
         inkscape:connector-curvature="0" />
      <path
         inkscape:connector-curvature="0"
         id="path5063"
         style="fill:none;stroke:#000000;stroke-width:2.88748837;stroke-linecap:round;stroke-linejoin:round;stroke-miterlimit:3.98214006;stroke-opacity:1;stroke-dasharray:none"
         d="m 354.44984,591.70096 0,-18.22781 c 0,-0.53913 0.30763,-1.01142 0.7732,-1.22084 0.47414,-0.20946 1.01236,-0.12036 1.38404,0.25855 0.7048,0.73069 1.478,1.29658 2.25971,1.71538 0.41862,0.21382 0.70484,0.68171 0.70484,1.17629 l 0,14.3737 c 0,0.51687 -0.26073,0.9624 -0.70484,1.19854 -0.78171,0.4055 -1.52928,0.96244 -2.25971,1.66641 -0.37168,0.37872 -0.9099,0.47676 -1.38404,0.25854 -0.46564,-0.20945 -0.7732,-0.67727 -0.7732,-1.22084 l 0,0.0218 z" />
      <path
         d="m 354.45333,506.50796 0,-18.2313 c 0,-0.53673 0.30545,-1.01237 0.77236,-1.22182 0.47128,-0.21382 1.01237,-0.11346 1.38328,0.25745 0.70254,0.72873 1.47927,1.296 2.256,1.71928 0.41891,0.21382 0.70255,0.68509 0.70255,1.17818 l 0,14.36511 c 0,0.51928 -0.26182,0.97309 -0.70255,1.20873 -0.77673,0.39709 -1.52727,0.93818 -2.256,1.66691 -0.37091,0.35346 -0.912,0.46691 -1.38328,0.25746 -0.46691,-0.20946 -0.77236,-0.68073 -0.77236,-1.22182 l 0,0.0218 z"
         style="fill:#ffffff;fill-opacity:1;fill-rule:nonzero;stroke:none"
         id="path5065"
         inkscape:connector-curvature="0" />
      <path
         inkscape:connector-curvature="0"
         id="path5069"
         style="fill:none;stroke:#000000;stroke-width:2.88748837;stroke-linecap:round;stroke-linejoin:round;stroke-miterlimit:3.98214006;stroke-opacity:1;stroke-dasharray:none"
         d="m 354.44984,506.5057 0,-18.23224 c 0,-0.53913 0.30763,-1.01142 0.7732,-1.22528 0.47414,-0.20945 1.01236,-0.11127 1.38404,0.25855 0.7048,0.73073 1.478,1.29658 2.25971,1.71985 0.41862,0.21382 0.70484,0.68171 0.70484,1.1763 l 0,14.36926 c 0,0.51683 -0.26073,0.97131 -0.70484,1.20298 -0.78171,0.40102 -1.52928,0.94015 -2.25971,1.67087 -0.37168,0.35637 -0.9099,0.46782 -1.38404,0.25855 -0.46564,-0.20945 -0.7732,-0.68171 -0.7732,-1.22527 l 0,0.0255 z" />
      <path
         d="m 398.81849,509.11741 c 0,0.37964 -0.17019,0.75492 -0.44946,1.01237 -0.27927,0.23564 -0.65455,0.35346 -1.02982,0.30546 l -0.0436,-26.16004 c 0.37091,-0.0393 0.74619,0.0524 1.04728,0.30981 0.28364,0.25746 0.45382,0.61528 0.45382,1.01237 l 0.0218,23.52003 z m 2.60509,117.142 c 2.16,0 3.92292,1.78909 3.92292,3.97964 0,0.78109 0.23127,1.59709 0.60654,2.21237 l 54.01317,0 c 0.40146,-0.61528 0.53673,-1.43128 0.53673,-2.21237 0,-2.19055 1.76291,-3.97964 3.94474,-3.97964 l 8.73601,0 0.0916,-172.7479 -9.4822,0.0255 c -1.81091,0 -3.29019,-1.50546 -3.29019,-3.34255 0,-0.51928 -0.11345,-1.01237 -0.32291,-1.45746 l -54.48444,0 c -0.21382,0.44509 -0.33164,0.93818 -0.33164,1.45746 0,1.83709 -1.47927,3.31637 -3.28146,3.31637 l -3.264,0.0255 2.60509,172.72171 z"
         style="fill:#ffffff;fill-opacity:1;fill-rule:nonzero;stroke:none"
         id="path5071"
         inkscape:connector-curvature="0" />
      <path
         inkscape:connector-curvature="0"
         id="path5075"
         style="fill:none;stroke:#000000;stroke-width:2.88748908;stroke-linecap:round;stroke-linejoin:round;stroke-miterlimit:3.98214006;stroke-opacity:1;stroke-dasharray:none"
         d="m 398.82132,509.11171 c 0,0.38192 -0.16909,0.75509 -0.44673,1.01407 -0.28618,0.23273 -0.6636,0.35564 -1.03662,0.30727 l -0.0476,-26.16 c 0.37302,-0.044 0.75036,0.0484 1.05829,0.30727 0.28182,0.25891 0.44673,0.61459 0.44673,1.00968 l 0.0254,23.52163 z m 2.60241,117.14272 c 2.15564,0 3.91655,1.79113 3.91655,3.98175 0,0.77702 0.23854,1.59356 0.61156,2.20815 l 54.01681,0 c 0.39902,-0.61459 0.53782,-1.43113 0.53782,-2.20815 0,-2.19062 1.76095,-3.98175 3.94259,-3.98175 l 8.73536,0 0.0953,-172.74644 -9.48569,0.0218 c -1.80866,0 -3.28768,-1.50574 -3.28768,-3.34076 0,-0.51804 -0.11709,-1.01412 -0.32945,-1.4575 l -54.48088,0 c -0.21237,0.44338 -0.32946,0.93946 -0.32946,1.4575 0,1.83502 -1.47902,3.31884 -3.28768,3.31884 l -3.25731,0.0218 2.6024,172.72452 z" />
      <path
         d="m 473.46296,453.51151 -77.72084,0 c -1.75855,0 -3.47346,0.70691 -4.7171,1.95055 -1.26546,1.248 -1.97237,2.9411 -1.97237,4.70401 l 0,24.86404 1.80655,-0.28364 c 0.37527,-0.0655 0.77237,0.048 1.056,0.30982 0.30546,0.23563 0.46691,0.61091 0.46691,0.98618 l 0.0255,22.60367 c 0,0.37964 -0.18764,0.75491 -0.47128,1.01237 -0.30545,0.23563 -0.67636,0.35782 -1.07782,0.30982 l -1.85454,-0.28364 0.048,60.40591 1.78036,-0.28364 c 0.40146,-0.0436 0.77237,0.0698 1.08219,0.30546 0.30545,0.26181 0.46691,0.63709 0.46691,1.01236 l 0.0254,22.60367 c 0,0.37964 -0.18764,0.75491 -0.47127,1.01237 -0.30546,0.23563 -0.70255,0.35781 -1.07782,0.30981 l -1.85455,-0.28363 0.048,24.83785 c 0,1.76728 0.70691,3.46037 1.94618,4.70401 1.26982,1.248 2.95855,1.95055 4.74328,1.95055 l 77.81248,0 -0.0916,-172.7479 z"
         style="fill:#ffffff;fill-opacity:1;fill-rule:nonzero;stroke:none"
         id="path5077"
         inkscape:connector-curvature="0" />
      <path
         inkscape:connector-curvature="0"
         id="path5081"
         style="fill:none;stroke:#000000;stroke-width:2.88748789;stroke-linecap:round;stroke-linejoin:round;stroke-miterlimit:3.98214006;stroke-opacity:1;stroke-dasharray:none"
         d="m 473.4674,453.50508 -77.72721,0 c -1.75877,0 -3.47535,0.70353 -4.71535,1.95269 -1.27371,1.24466 -1.97808,2.93579 -1.97808,4.70357 l 0,24.86171 1.80939,-0.284 c 0.3796,-0.0633 0.78025,0.0495 1.05862,0.31127 0.308,0.23455 0.46818,0.61331 0.46818,0.9831 l 0.0254,22.60687 c 0,0.37883 -0.18545,0.75313 -0.46818,1.01469 -0.30364,0.23455 -0.68324,0.35164 -1.08393,0.30655 l -1.85156,-0.28401 0.0422,60.40675 1.78829,-0.284 c 0.40069,-0.0407 0.77604,0.072 1.07971,0.30655 0.308,0.26145 0.46818,0.63589 0.46818,1.01018 l 0.0255,22.60687 c 0,0.3788 -0.18546,0.75313 -0.46818,1.01015 -0.30364,0.23891 -0.70433,0.35636 -1.08393,0.31127 l -1.85157,-0.284 0.0422,24.83913 c 0,1.76327 0.70437,3.45891 1.95277,4.70357 1.26531,1.24465 2.9608,1.95269 4.74066,1.95269 l 77.81579,0 -0.0887,-172.7512 z" />
      <path
         d="m 467.7335,470.63881 0,139.15657 c 0,0.70691 -0.13964,1.39201 -0.41891,1.8851 l -0.61527,1.12582 c -0.27491,0.49309 -0.4451,1.17382 -0.4451,1.86327 l 0,9.57384 c 0,0.72872 0.33164,1.31345 0.72873,1.31345 l 0.58909,0.048 c 0.096,0 0.18764,0.144 0.18764,0.33164 0,0.16145 0.0698,0.32291 0.192,0.32291 l 5.06619,0 -0.0916,-172.7479 -4.81309,0 c -0.20946,0 -0.37964,0.30546 -0.37964,0.68073 l 0.0255,-0.0255 c 0,0.384 -0.18763,0.68945 -0.37527,0.68945 l 0,-0.0255 c -0.61091,0 -1.13018,0.89454 -1.13018,2.00291 l 0,8.93238 c 0,0.68509 0.14836,1.37018 0.42763,1.86327 l 0.60655,1.12582 c 0.28364,0.49309 0.44509,1.17819 0.44509,1.8851 z"
         style="fill:#ffffff;fill-opacity:1;fill-rule:nonzero;stroke:none"
         id="path5083"
         inkscape:connector-curvature="0" />
      <path
         inkscape:connector-curvature="0"
         id="path5087"
         style="fill:none;stroke:#000000;stroke-width:2.88748789;stroke-linecap:round;stroke-linejoin:round;stroke-miterlimit:3.98214006;stroke-opacity:1;stroke-dasharray:none"
         d="m 467.73983,470.63274 0,139.15879 c 0,0.70353 -0.14328,1.38898 -0.42179,1.88506 l -0.61578,1.12287 c -0.28255,0.49608 -0.44284,1.17702 -0.44284,1.86251 l 0,9.57398 c 0,0.73055 0.32473,1.31229 0.72542,1.31229 l 0.58626,0.0495 c 0.0927,0 0.18982,0.14436 0.18982,0.33382 0,0.15782 0.0673,0.32473 0.18545,0.32473 l 5.06965,0 -0.0887,-172.75121 -4.81655,0 c -0.20655,0 -0.37117,0.30655 -0.37117,0.68098 l 0.0218,-0.0218 c 0,0.3788 -0.18982,0.68545 -0.37538,0.68545 l 0,-0.0218 c -0.60735,0 -1.12611,0.8884 -1.12611,1.99779 l 0,8.93361 c 0,0.68095 0.13927,1.3664 0.42174,1.86248 l 0.60735,1.12742 c 0.28254,0.49152 0.45131,1.17702 0.45131,1.88502 z" />
      <path
         d="m 408.39232,600.81064 0,-121.846 c 0,-0.84654 0.63709,-1.52727 1.41382,-1.52727 l 4.8131,0 c 0.768,0 1.40509,0.68073 1.40509,1.52727 l 0,121.846 c 0,0.85091 -0.63709,1.53164 -1.40509,1.53164 l -4.8131,0 c -0.77673,0 -1.41382,-0.68073 -1.41382,-1.53164 z"
         style="fill:#ffffff;fill-opacity:1;fill-rule:nonzero;stroke:none"
         id="path5089"
         inkscape:connector-curvature="0" />
      <path
         inkscape:connector-curvature="0"
         id="path5093"
         style="fill:none;stroke:#000000;stroke-width:2.88748837;stroke-linecap:round;stroke-linejoin:round;stroke-miterlimit:3.98214006;stroke-opacity:1;stroke-dasharray:none"
         d="m 408.39305,600.80817 0,-121.84691 c 0,-0.85098 0.63647,-1.52826 1.40967,-1.52826 l 4.80994,0 c 0.7732,0 1.40967,0.67728 1.40967,1.52826 l 0,121.84691 c 0,0.84655 -0.63647,1.52826 -1.40967,1.52826 l -4.80994,0 c -0.7732,0 -1.40967,-0.68171 -1.40967,-1.52826 z" />
      <path
         d="m 404.59595,606.31756 0,-132.88165 3.79637,3.97528 0,124.93109 -3.79637,3.97528 z"
         style="fill:#ffffff;fill-opacity:1;fill-rule:nonzero;stroke:none"
         id="path5095"
         inkscape:connector-curvature="0" />
      <path
         inkscape:connector-curvature="0"
         id="path5099"
         style="fill:none;stroke:#000000;stroke-width:2.88748837;stroke-linecap:round;stroke-linejoin:round;stroke-miterlimit:3.98214006;stroke-opacity:1;stroke-dasharray:none"
         d="m 404.59122,606.3108 0,-132.87889 3.80183,3.97437 0,124.93015 -3.80183,3.97437 z" />
      <path
         d="m 416.02433,602.34228 1.29164,3.97528 -12.76802,0 3.81819,-3.97528 7.65819,0 z"
         style="fill:#ffffff;fill-opacity:1;fill-rule:nonzero;stroke:none"
         id="path5101"
         inkscape:connector-curvature="0" />
      <path
         inkscape:connector-curvature="0"
         id="path5105"
         style="fill:none;stroke:#000000;stroke-width:2.88748837;stroke-linecap:round;stroke-linejoin:round;stroke-miterlimit:3.98214006;stroke-opacity:1;stroke-dasharray:none"
         d="m 416.02233,602.33643 1.29433,3.97437 -12.77242,0 3.82746,-3.97437 7.65063,0 z" />
      <path
         d="m 408.36614,477.43737 -3.81819,-3.97965 12.76802,0 -1.29164,3.97965 -7.65819,0 z"
         style="fill:#ffffff;fill-opacity:1;fill-rule:nonzero;stroke:none"
         id="path5107"
         inkscape:connector-curvature="0" />
      <path
         inkscape:connector-curvature="0"
         id="path5111"
         style="fill:none;stroke:#000000;stroke-width:2.88748837;stroke-linecap:round;stroke-linejoin:round;stroke-miterlimit:3.98214006;stroke-opacity:1;stroke-dasharray:none"
         d="m 408.3717,477.433 -3.82746,-3.97884 12.77242,0 -1.29433,3.97884 -7.65063,0 z" />
      <path
         d="m 417.31597,606.31756 -1.29164,-3.97528 0,-124.93109 1.29164,-3.97528 0,132.88165 z"
         style="fill:#ffffff;fill-opacity:1;fill-rule:nonzero;stroke:none"
         id="path5113"
         inkscape:connector-curvature="0" />
      <path
         inkscape:connector-curvature="0"
         id="path5117"
         style="fill:none;stroke:#000000;stroke-width:2.88748837;stroke-linecap:round;stroke-linejoin:round;stroke-miterlimit:3.98214006;stroke-opacity:1;stroke-dasharray:none"
         d="m 417.31666,606.3108 -1.29433,-3.97437 0,-124.93015 1.29433,-3.97437 0,132.87889 z" />
      <path
         d="m 416.05051,591.8259 0,-10.86983 c 0,-0.65455 0.48873,-1.19564 1.12146,-1.19564 l 1.54909,0 c 0.63709,0 1.13018,0.54109 1.13018,1.19564 l 0,10.86983 c 0,0.65891 -0.49309,1.2 -1.13018,1.2 l -1.54909,0 c -0.63273,0 -1.12146,-0.54109 -1.12146,-1.2 z"
         style="fill:#ffffff;fill-opacity:1;fill-rule:nonzero;stroke:none"
         id="path5119"
         inkscape:connector-curvature="0" />
      <path
         inkscape:connector-curvature="0"
         id="path5123"
         style="fill:none;stroke:#000000;stroke-width:2.88748837;stroke-linecap:round;stroke-linejoin:round;stroke-miterlimit:3.98214006;stroke-opacity:1;stroke-dasharray:none"
         d="m 416.04368,591.82125 0,-10.86718 c 0,-0.65942 0.49552,-1.19855 1.12774,-1.19855 l 1.55491,0 c 0.63222,0 1.12346,0.53913 1.12346,1.19855 l 0,10.86718 c 0,0.65942 -0.49124,1.19855 -1.12346,1.19855 l -1.55491,0 c -0.63222,0 -1.12774,-0.53913 -1.12774,-1.19855 z" />
      <path
         d="m 416.05051,498.81485 0,-10.86547 c 0,-0.65891 0.48873,-1.22182 1.12146,-1.22182 l 1.54909,0 c 0.63709,0 1.13018,0.56291 1.13018,1.22182 l 0,10.86547 c 0,0.66328 -0.49309,1.20437 -1.13018,1.20437 l -1.54909,0 c -0.63273,0 -1.12146,-0.54109 -1.12146,-1.20437 z"
         style="fill:#ffffff;fill-opacity:1;fill-rule:nonzero;stroke:none"
         id="path5125"
         inkscape:connector-curvature="0" />
      <path
         inkscape:connector-curvature="0"
         id="path5129"
         style="fill:none;stroke:#000000;stroke-width:2.88748837;stroke-linecap:round;stroke-linejoin:round;stroke-miterlimit:3.98214006;stroke-opacity:1;stroke-dasharray:none"
         d="m 416.04368,498.81089 0,-10.86714 c 0,-0.65942 0.49552,-1.22084 1.12774,-1.22084 l 1.55491,0 c 0.63222,0 1.12346,0.56142 1.12346,1.22084 l 0,10.86714 c 0,0.65946 -0.49124,1.20302 -1.12346,1.20302 l -1.55491,0 c -0.63222,0 -1.12774,-0.54356 -1.12774,-1.20302 z" />
      <path
         d="m 416.05051,558.60985 0,-10.86983 c 0,-0.68073 0.48873,-1.22182 1.12146,-1.22182 l 1.54909,0 c 0.63709,0 1.13018,0.54109 1.13018,1.22182 l 0,10.86983 c 0,0.65891 -0.49309,1.2 -1.13018,1.2 l -1.54909,0 c -0.63273,0 -1.12146,-0.54109 -1.12146,-1.2 z"
         style="fill:#ffffff;fill-opacity:1;fill-rule:nonzero;stroke:none"
         id="path5131"
         inkscape:connector-curvature="0" />
      <path
         inkscape:connector-curvature="0"
         id="path5135"
         style="fill:none;stroke:#000000;stroke-width:2.88748837;stroke-linecap:round;stroke-linejoin:round;stroke-miterlimit:3.98214006;stroke-opacity:1;stroke-dasharray:none"
         d="m 416.04368,558.60487 0,-10.86718 c 0,-0.68171 0.49552,-1.22527 1.12774,-1.22527 l 1.55491,0 c 0.63222,0 1.12346,0.54356 1.12346,1.22527 l 0,10.86718 c 0,0.65942 -0.49124,1.19855 -1.12346,1.19855 l -1.55491,0 c -0.63222,0 -1.12774,-0.53913 -1.12774,-1.19855 z" />
      <path
         d="m 416.05051,532.0309 0,-10.86983 c 0,-0.65455 0.48873,-1.19564 1.12146,-1.19564 l 1.54909,0 c 0.63709,0 1.13018,0.54109 1.13018,1.19564 l 0,10.86983 c 0,0.65455 -0.49309,1.22182 -1.13018,1.22182 l -1.54909,0 c -0.63273,0 -1.12146,-0.56727 -1.12146,-1.22182 z"
         style="fill:#ffffff;fill-opacity:1;fill-rule:nonzero;stroke:none"
         id="path5137"
         inkscape:connector-curvature="0" />
      <path
         inkscape:connector-curvature="0"
         id="path5141"
         style="fill:none;stroke:#000000;stroke-width:2.88748837;stroke-linecap:round;stroke-linejoin:round;stroke-miterlimit:3.98214006;stroke-opacity:1;stroke-dasharray:none"
         d="m 416.04368,532.0273 0,-10.87165 c 0,-0.65495 0.49552,-1.19855 1.12774,-1.19855 l 1.55491,0 c 0.63222,0 1.12346,0.5436 1.12346,1.19855 l 0,10.87165 c 0,0.65495 -0.49124,1.22081 -1.12346,1.22081 l -1.55491,0 c -0.63222,0 -1.12774,-0.56586 -1.12774,-1.22081 z" />
      <path
         d="m 462.24404,591.70808 0,-18.22693 c 0,-0.54546 0.30545,-1.01237 0.77236,-1.22619 0.47127,-0.20945 1.01237,-0.11781 1.38764,0.26182 0.70691,0.72873 1.45309,1.29164 2.22982,1.71491 0.44509,0.20946 0.70255,0.68073 0.70255,1.17382 l 0.0254,14.37384 c 0,0.51928 -0.28364,0.96437 -0.70254,1.20001 -0.80292,0.40145 -1.5491,0.96436 -2.25601,1.66691 -0.37527,0.37963 -0.91636,0.47563 -1.38764,0.25745 -0.46691,-0.20945 -0.77236,-0.68073 -0.77236,-1.22182 l 0,0.0255 z"
         style="fill:#ffffff;fill-opacity:1;fill-rule:nonzero;stroke:none"
         id="path5143"
         inkscape:connector-curvature="0" />
      <path
         inkscape:connector-curvature="0"
         id="path5147"
         style="fill:none;stroke:#000000;stroke-width:2.88748837;stroke-linecap:round;stroke-linejoin:round;stroke-miterlimit:3.98214006;stroke-opacity:1;stroke-dasharray:none"
         d="m 462.24229,591.70096 0,-18.22781 c 0,-0.53913 0.30764,-1.01142 0.77317,-1.22084 0.46989,-0.20946 1.0124,-0.12036 1.38829,0.25855 0.70484,0.73069 1.4524,1.29658 2.22557,1.71538 0.4528,0.21382 0.70483,0.68171 0.70483,1.17629 l 0.0255,14.3737 c 0,0.51687 -0.27782,0.9624 -0.70484,1.19854 -0.7988,0.4055 -1.54637,0.96244 -2.2512,1.66641 -0.3759,0.37872 -0.91841,0.47676 -1.3883,0.25854 -0.4656,-0.20945 -0.77316,-0.67727 -0.77316,-1.22084 l 0,0.0218 z" />
      <path
         d="m 462.24404,506.50796 0,-18.2313 c 0,-0.53673 0.30545,-1.01237 0.77236,-1.22182 0.47127,-0.21382 1.01237,-0.11346 1.38764,0.25745 0.70691,0.72873 1.45309,1.296 2.22982,1.71928 0.44509,0.21382 0.70255,0.68509 0.70255,1.17818 l 0.0254,14.36511 c 0,0.51928 -0.28364,0.97309 -0.70254,1.20873 -0.80292,0.39709 -1.5491,0.93818 -2.25601,1.66691 -0.37527,0.35346 -0.91636,0.46691 -1.38764,0.25746 -0.46691,-0.20946 -0.77236,-0.68073 -0.77236,-1.22182 l 0,0.0218 z"
         style="fill:#ffffff;fill-opacity:1;fill-rule:nonzero;stroke:none"
         id="path5149"
         inkscape:connector-curvature="0" />
      <path
         inkscape:connector-curvature="0"
         id="path5153"
         style="fill:none;stroke:#000000;stroke-width:2.88748837;stroke-linecap:round;stroke-linejoin:round;stroke-miterlimit:3.98214006;stroke-opacity:1;stroke-dasharray:none"
         d="m 462.24229,506.5057 0,-18.23224 c 0,-0.53913 0.30764,-1.01142 0.77317,-1.22528 0.46989,-0.20945 1.0124,-0.11127 1.38829,0.25855 0.70484,0.73073 1.4524,1.29658 2.22557,1.71985 0.4528,0.21382 0.70483,0.68171 0.70483,1.1763 l 0.0255,14.36926 c 0,0.51683 -0.27782,0.97131 -0.70484,1.20298 -0.7988,0.40102 -1.54637,0.94015 -2.2512,1.67087 -0.3759,0.35637 -0.91841,0.46782 -1.3883,0.25855 -0.4656,-0.20945 -0.77316,-0.68171 -0.77316,-1.22527 l 0,0.0255 z" />
      <path
         d="m 359.63734,626.33359 -1.00801,-172.7959 33.75278,0.18764 -0.11345,172.63008 -28.68659,-0.0218 -3.94473,0 z"
         style="fill:#ffffff;fill-opacity:1;fill-rule:nonzero;stroke:none"
         id="path5155"
         inkscape:connector-curvature="0" />
      <path
         inkscape:connector-curvature="0"
         id="path5159"
         style="fill:none;stroke:#000000;stroke-width:2.88748789;stroke-linecap:round;stroke-linejoin:round;stroke-miterlimit:3.98214006;stroke-opacity:1;stroke-dasharray:none"
         d="m 359.64126,626.32843 -1.01225,-172.80077 33.75394,0.18945 -0.11818,172.63394 -28.6843,-0.0218 -3.93928,0 z" />
      <path
         inkscape:connector-curvature="0"
         id="path5163"
         style="fill:none;stroke:#66ccff;stroke-width:2.88748789;stroke-linecap:round;stroke-linejoin:round;stroke-miterlimit:4;stroke-opacity:1;stroke-dasharray:none"
         d="m 317.33898,586.86066 28.47379,0 -0.0916,104.67037" />
      <path
         d="m 332.43439,593.87245 -18.89894,-6.98619 18.89894,-6.96438 c -3.02837,4.11928 -3.00655,9.73529 0,13.95057 z"
         style="fill:#66ccff;fill-opacity:1;fill-rule:evenodd;stroke:none"
         id="path5165"
         inkscape:connector-curvature="0" />
      <path
         inkscape:connector-curvature="0"
         id="path5169"
         style="fill:none;stroke:#66ccff;stroke-width:1.08280873;stroke-linecap:butt;stroke-linejoin:round;stroke-miterlimit:4;stroke-opacity:1;stroke-dasharray:none"
         d="m 332.43282,593.87005 -18.90112,-6.9911 18.90349,-6.95848 c -3.02979,4.1136 -3.00895,9.73888 -0.002,13.94958 z" />
      <path
         inkscape:connector-curvature="0"
         id="path5173"
         style="fill:none;stroke:#66ccff;stroke-width:2.88748789;stroke-linecap:round;stroke-linejoin:round;stroke-miterlimit:4;stroke-opacity:1;stroke-dasharray:none"
         d="m 317.33898,492.69579 28.47379,0 0,-104.67474" />
      <path
         d="m 332.43439,499.68758 -18.89894,-6.96001 18.89894,-6.96874 c -3.02837,4.11928 -3.00655,9.74402 0,13.92875 z"
         style="fill:#66ccff;fill-opacity:1;fill-rule:evenodd;stroke:none"
         id="path5175"
         inkscape:connector-curvature="0" />
      <path
         inkscape:connector-curvature="0"
         id="path5179"
         style="fill:none;stroke:#66ccff;stroke-width:1.08280873;stroke-linecap:butt;stroke-linejoin:round;stroke-miterlimit:4;stroke-opacity:1;stroke-dasharray:none"
         d="m 332.43439,499.68733 -18.89912,-6.96721 18.89679,-6.96056 c -3.02841,4.11466 -3.00128,9.73554 0.002,13.92777 z" />
      <path
         inkscape:connector-curvature="0"
         id="path5183"
         style="fill:none;stroke:#66ccff;stroke-width:2.88748789;stroke-linecap:round;stroke-linejoin:round;stroke-miterlimit:4;stroke-opacity:1;stroke-dasharray:none"
         d="m 317.33898,553.19948 79.73707,0.0218 0.47516,137.84232" />
      <path
         d="m 332.43439,560.21131 -18.89894,-6.98183 18.89894,-6.96874 c -3.02837,4.11928 -3.00655,9.74402 0,13.95057 z"
         style="fill:#66ccff;fill-opacity:1;fill-rule:evenodd;stroke:none"
         id="path5185"
         inkscape:connector-curvature="0" />
      <path
         inkscape:connector-curvature="0"
         id="path5189"
         style="fill:none;stroke:#66ccff;stroke-width:1.08280897;stroke-linecap:butt;stroke-linejoin:round;stroke-miterlimit:4;stroke-opacity:1;stroke-dasharray:none"
         d="m 332.43082,560.20618 -18.89519,-6.98543 18.89607,-6.96132 c -3.02532,4.11001 -3.00386,9.73591 -8.8e-4,13.94675 z" />
      <path
         inkscape:connector-curvature="0"
         id="path5197"
         style="fill:none;stroke:#66ccff;stroke-width:2.88748789;stroke-linecap:round;stroke-linejoin:round;stroke-miterlimit:4;stroke-opacity:1;stroke-dasharray:none"
         d="m 317.33898,527.15199 79.73707,0 0.47516,-137.86414" />
      <path
         d="m 332.43439,534.15163 -18.89894,-6.96873 18.89894,-6.96001 c -3.02837,4.11928 -3.00655,9.73528 0,13.92874 z"
         style="fill:#66ccff;fill-opacity:1;fill-rule:evenodd;stroke:none"
         id="path5199"
         inkscape:connector-curvature="0" />
      <path
         inkscape:connector-curvature="0"
         id="path5203"
         style="fill:none;stroke:#66ccff;stroke-width:1.08280897;stroke-linecap:butt;stroke-linejoin:round;stroke-miterlimit:4;stroke-opacity:1;stroke-dasharray:none"
         d="m 332.43184,534.14327 -18.89606,-6.96132 18.89959,-6.96361 c -3.02917,4.11477 -3.01139,9.74063 -0.004,13.92493 z" />
      <path
         d="m 399.24176,362.17174 0,4.11928 -16.5513,0 0.096,0.65891 18.19203,13.50111 0.54109,0 0,-11.59856 9.03711,0 -0.42764,-2.56146 -8.65747,0 0,-3.93164 -2.22982,-0.18764 z m 0,6.68074 0,7.81092 -10.66038,-7.81092 10.66038,0 z"
         style="fill:#000000;fill-opacity:1;fill-rule:nonzero;stroke:none"
         id="path5205"
         inkscape:connector-curvature="0" />
      <path
         d="m 352.05332,378.21685 c 0.5411,-0.42327 1.01237,-0.91636 1.41383,-1.48363 0.39709,-0.56728 0.72872,-1.15201 0.98618,-1.81092 0.25745,-0.61091 0.44509,-1.26982 0.58036,-1.97673 0.12218,-0.65454 0.17018,-1.344 0.192,-2.02036 -0.0218,-1.57964 -0.30545,-2.9411 -0.89454,-4.11492 -0.60655,-1.13018 -1.3571,-2.07273 -2.29964,-2.77527 -0.912,-0.71128 -1.97237,-1.15637 -3.12001,-1.37019 -1.13018,-0.20945 -2.22982,-0.18327 -3.33382,0.0524 -1.07782,0.28364 -2.06837,0.77237 -2.98037,1.50546 -0.89018,0.75055 -1.57527,1.76291 -2.04655,3.00655 -0.46691,-1.13018 -1.14327,-2.04655 -1.99418,-2.74909 -0.816,-0.66328 -1.71055,-1.10837 -2.67492,-1.34401 -0.96,-0.18763 -1.92436,-0.16145 -2.93236,0.0742 -0.96001,0.25745 -1.85455,0.70254 -2.67928,1.33963 -0.77673,0.68073 -1.43128,1.52728 -1.94619,2.56146 -0.49309,1.06037 -0.75054,2.28219 -0.75054,3.69601 0,1.26982 0.25745,2.51782 0.75054,3.69164 0.51491,1.22182 1.21746,2.23419 2.13819,3.0851 l 2.08582,-0.92073 c -0.75055,-0.72873 -1.35709,-1.57091 -1.85018,-2.58328 -0.47128,-0.99055 -0.72873,-2.05091 -0.72873,-3.15491 0,-1.01673 0.23563,-1.92873 0.68073,-2.75346 0.44509,-0.80291 1.008,-1.43128 1.71054,-1.90255 0.70255,-0.45382 1.45746,-0.70691 2.25601,-0.75491 0.79854,-0.048 1.54909,0.16582 2.25164,0.63273 0.70254,0.47127 1.31782,1.248 1.83273,2.28218 0.51927,1.08219 0.82036,2.49601 0.89018,4.23274 l 2.256,0 c 0.0218,-0.98619 0.0916,-1.95055 0.20946,-2.86692 0.144,-0.92072 0.40145,-1.71927 0.79855,-2.42618 0.41891,-0.65455 1.008,-1.22182 1.71054,-1.64073 0.75491,-0.40582 1.69746,-0.59346 2.86692,-0.61528 0.89018,0.0218 1.68873,0.17019 2.34327,0.46691 0.6851,0.30982 1.24364,0.73746 1.69746,1.27419 0.46691,0.54109 0.79855,1.17818 1.02982,1.90691 0.23564,0.72873 0.35346,1.53164 0.35346,2.34764 0,1.15637 -0.23564,2.21673 -0.75492,3.2291 -0.46691,1.02982 -1.16945,1.90254 -2.06836,2.55709 l 2.02036,1.32218 z"
         style="fill:#000000;fill-opacity:1;fill-rule:nonzero;stroke:none"
         id="path5207"
         inkscape:connector-curvature="0" />
      <text
         style="font-size:43.62617874px"
         y="740.89978"
         x="337.45618"
         id="text5221"
         transform="scale(1.000235,0.99976507)">
        <tspan
           id="tspan5223"
           y="740.89978"
           x="337.45618"
           style="font-size:36.22674561px;font-variant:normal;writing-mode:lr-tb;fill:#000000;fill-opacity:1;fill-rule:nonzero;stroke:none;font-family:Klill-WinCharSetFFFF;-inkscape-font-specification:Klill-WinCharSetFFFF-H">1</tspan>
        <tspan
           id="tspan5225"
           sodipodi:role="line"
           y="741.77271"
           x="336.58365 337.45624"
           style="font-size:36.22674561px;font-variant:normal;writing-mode:lr-tb;fill:#000000;fill-opacity:1;fill-rule:nonzero;stroke:none;font-family:Klill-WinCharSetFFFF;-inkscape-font-specification:Klill-WinCharSetFFFF-H">11</tspan>
        <tspan
           id="tspan5227"
           y="740.89978"
           x="336.58365"
           style="font-size:36.22674561px;font-variant:normal;writing-mode:lr-tb;fill:#000000;fill-opacity:1;fill-rule:nonzero;stroke:none;font-family:Klill-WinCharSetFFFF;-inkscape-font-specification:Klill-WinCharSetFFFF-H">1</tspan>
      </text>
      <text
         style="font-size:43.62617874px"
         y="740.89978"
         x="392.86142"
         id="text5251"
         transform="scale(1.000235,0.99976507)">
        <tspan
           id="tspan5253"
           y="740.89978"
           x="392.86142"
           style="font-size:36.22674561px;font-variant:normal;writing-mode:lr-tb;fill:#000000;fill-opacity:1;fill-rule:nonzero;stroke:none;font-family:Klill-WinCharSetFFFF;-inkscape-font-specification:Klill-WinCharSetFFFF-H">2</tspan>
        <tspan
           id="tspan5255"
           sodipodi:role="line"
           y="741.77271"
           x="391.98889 392.86148"
           style="font-size:36.22674561px;font-variant:normal;writing-mode:lr-tb;fill:#000000;fill-opacity:1;fill-rule:nonzero;stroke:none;font-family:Klill-WinCharSetFFFF;-inkscape-font-specification:Klill-WinCharSetFFFF-H">22</tspan>
        <tspan
           id="tspan5257"
           y="740.89978"
           x="391.98889"
           style="font-size:36.22674561px;font-variant:normal;writing-mode:lr-tb;fill:#000000;fill-opacity:1;fill-rule:nonzero;stroke:none;font-family:Klill-WinCharSetFFFF;-inkscape-font-specification:Klill-WinCharSetFFFF-H">2</tspan>
      </text>
      <path
         d="m 363.71734,393.38051 70.25465,0 0,-70.25465 -70.25465,0 0,70.25465 z"
         style="fill:#ffffff;fill-opacity:1;fill-rule:evenodd;stroke:none"
         id="path5269"
         inkscape:connector-curvature="0" />
      <text
         style="font-size:43.62617874px"
         y="375.57712"
         x="390.68015"
         id="text5281"
         transform="scale(1.000235,0.99976507)">
        <tspan
           id="tspan5283"
           y="375.57712"
           x="390.68015"
           style="font-size:36.22674561px;font-variant:normal;writing-mode:lr-tb;fill:#000000;fill-opacity:1;fill-rule:nonzero;stroke:none;font-family:Klill-WinCharSetFFFF;-inkscape-font-specification:Klill-WinCharSetFFFF-H">3</tspan>
        <tspan
           id="tspan5285"
           sodipodi:role="line"
           y="376.45001"
           x="389.80762 390.68018"
           style="font-size:36.22674561px;font-variant:normal;writing-mode:lr-tb;fill:#000000;fill-opacity:1;fill-rule:nonzero;stroke:none;font-family:Klill-WinCharSetFFFF;-inkscape-font-specification:Klill-WinCharSetFFFF-H">33</tspan>
        <tspan
           id="tspan5287"
           y="375.57712"
           x="389.80762"
           style="font-size:36.22674561px;font-variant:normal;writing-mode:lr-tb;fill:#000000;fill-opacity:1;fill-rule:nonzero;stroke:none;font-family:Klill-WinCharSetFFFF;-inkscape-font-specification:Klill-WinCharSetFFFF-H">3</tspan>
      </text>
      <path
         d="m 300.44452,393.38051 83.34558,0 0,-68.94555 -83.34558,0 0,68.94555 z"
         style="fill:#ffffff;fill-opacity:1;fill-rule:evenodd;stroke:none"
         id="path5299"
         inkscape:connector-curvature="0" />
      <text
         style="font-size:43.62617874px"
         y="376.88647"
         x="327.42221"
         id="text5311"
         transform="scale(1.000235,0.99976507)">
        <tspan
           id="tspan5313"
           y="376.88647"
           x="327.42221"
           style="font-size:36.22674561px;font-variant:normal;writing-mode:lr-tb;fill:#000000;fill-opacity:1;fill-rule:nonzero;stroke:none;font-family:Klill-WinCharSetFFFF;-inkscape-font-specification:Klill-WinCharSetFFFF-H">4</tspan>
        <tspan
           id="tspan5315"
           sodipodi:role="line"
           y="377.7594"
           x="326.54968 327.42221"
           style="font-size:36.22674561px;font-variant:normal;writing-mode:lr-tb;fill:#000000;fill-opacity:1;fill-rule:nonzero;stroke:none;font-family:Klill-WinCharSetFFFF;-inkscape-font-specification:Klill-WinCharSetFFFF-H">44</tspan>
        <tspan
           id="tspan5317"
           y="376.88647"
           x="326.54968"
           style="font-size:36.22674561px;font-variant:normal;writing-mode:lr-tb;fill:#000000;fill-opacity:1;fill-rule:nonzero;stroke:none;font-family:Klill-WinCharSetFFFF;-inkscape-font-specification:Klill-WinCharSetFFFF-H">4</tspan>
      </text>
    </g>
  </g>
</svg>
